<svg version="1.1" xmlns="http://www.w3.org/2000/svg" viewBox="0 0 838.7945547232708 422.1887012206151" width="838.7945547232708" height="422.1887012206151" filter="invert(93%) hue-rotate(180deg)">
  <!-- svg-source:excalidraw -->
  
  <defs>
    <style class="style-fonts">
      @font-face {
        font-family: "Virgil";
        src: url("https://excalidraw.com/Virgil.woff2");
      }
      @font-face {
        font-family: "Cascadia";
        src: url("https://excalidraw.com/Cascadia.woff2");
      }
    </style>
    
  </defs>
  <rect x="0" y="0" width="838.7945547232708" height="422.1887012206151" fill="#ffffff"/><g transform="translate(13.854849957484362 162.2663585394369) rotate(0 -1.9274249787421809 22.165344299295924)" stroke="none"><path fill="#1e1e1e" d="M 1.79,0 Q 1.79,0 1.73,3.14 1.66,6.28 1.43,9.14 1.19,12.00 0.90,16.15 0.60,20.30 0.09,24.68 -0.41,29.06 -1.01,32.78 -1.61,36.51 -1.83,39.78 -2.05,43.05 -2.12,43.31 -2.19,43.57 -2.34,43.79 -2.49,44.01 -2.70,44.17 -2.92,44.33 -3.17,44.42 -3.42,44.51 -3.69,44.51 -3.96,44.51 -4.21,44.42 -4.47,44.34 -4.68,44.18 -4.90,44.02 -5.05,43.80 -5.20,43.57 -5.27,43.32 -5.34,43.06 -5.33,42.79 -5.31,42.52 -5.22,42.27 -5.12,42.03 -4.94,41.82 -4.77,41.62 -4.54,41.48 -4.31,41.34 -4.05,41.28 -3.79,41.22 -3.52,41.25 -3.26,41.28 -3.01,41.39 -2.77,41.50 -2.58,41.69 -2.38,41.87 -2.26,42.11 -2.13,42.34 -2.09,42.61 -2.04,42.87 -2.08,43.13 -2.13,43.40 -2.25,43.64 -2.38,43.87 -2.57,44.06 -2.76,44.24 -3.01,44.36 -3.25,44.47 -3.52,44.50 -3.78,44.53 -4.04,44.47 -4.30,44.41 -4.53,44.28 -4.76,44.14 -4.94,43.94 -5.11,43.73 -5.21,43.48 -5.31,43.24 -5.33,42.97 -5.34,42.70 -5.34,42.70 -5.34,42.70 -4.87,39.39 -4.40,36.08 -3.85,32.41 -3.29,28.74 -2.84,24.42 -2.39,20.11 -2.16,15.95 -1.93,11.80 -1.80,9.04 -1.66,6.27 -1.73,3.13 -1.79,0 -1.77,-0.21 -1.74,-0.43 -1.67,-0.63 -1.59,-0.83 -1.47,-1.01 -1.34,-1.19 -1.18,-1.33 -1.02,-1.48 -0.83,-1.58 -0.63,-1.68 -0.42,-1.73 -0.21,-1.78 0.00,-1.78 0.21,-1.78 0.42,-1.73 0.63,-1.68 0.83,-1.58 1.02,-1.48 1.18,-1.33 1.34,-1.19 1.47,-1.01 1.59,-0.83 1.67,-0.63 1.74,-0.43 1.77,-0.21 1.79,0.00 1.79,0.00 L 1.79,0 Z"/></g><g transform="translate(15.782253458106936 180.8981118558251) rotate(0 10.600826644022249 -1.9274249787421809)" stroke="none"><path fill="#1e1e1e" d="M -0.41,-2.06 Q -0.41,-2.06 2.37,-2.51 5.16,-2.96 7.61,-3.48 10.06,-4.00 12.06,-4.42 14.06,-4.83 17.23,-5.22 20.40,-5.61 20.70,-5.59 20.99,-5.56 21.26,-5.45 21.53,-5.33 21.75,-5.13 21.97,-4.93 22.11,-4.68 22.26,-4.42 22.31,-4.13 22.36,-3.84 22.32,-3.55 22.28,-3.26 22.15,-2.99 22.02,-2.73 21.81,-2.52 21.60,-2.32 21.33,-2.19 21.07,-2.06 20.78,-2.02 20.49,-1.98 20.20,-2.04 19.91,-2.09 19.65,-2.24 19.40,-2.39 19.20,-2.61 19.00,-2.83 18.89,-3.10 18.77,-3.37 18.75,-3.66 18.73,-3.96 18.80,-4.24 18.87,-4.53 19.03,-4.77 19.19,-5.02 19.42,-5.21 19.66,-5.39 19.93,-5.49 20.21,-5.59 20.50,-5.60 20.80,-5.60 21.08,-5.51 21.36,-5.43 21.60,-5.25 21.84,-5.08 22.01,-4.84 22.18,-4.60 22.26,-4.32 22.35,-4.04 22.34,-3.74 22.33,-3.45 22.23,-3.17 22.12,-2.90 21.94,-2.67 21.75,-2.44 21.50,-2.28 21.25,-2.12 20.97,-2.05 20.68,-1.98 20.68,-1.98 20.68,-1.98 17.74,-1.77 14.79,-1.56 12.84,-1.09 10.89,-0.63 8.40,0.05 5.91,0.74 3.16,1.40 0.41,2.06 0.15,2.08 -0.09,2.10 -0.34,2.05 -0.59,2.01 -0.82,1.91 -1.05,1.81 -1.26,1.66 -1.46,1.51 -1.62,1.31 -1.78,1.11 -1.89,0.88 -1.99,0.65 -2.04,0.40 -2.09,0.16 -2.08,-0.09 -2.07,-0.34 -2.00,-0.58 -1.93,-0.83 -1.80,-1.05 -1.67,-1.27 -1.50,-1.45 -1.32,-1.63 -1.10,-1.76 -0.89,-1.90 -0.65,-1.98 -0.41,-2.06 -0.41,-2.06 L -0.41,-2.06 Z"/></g><g transform="translate(34.41400677449519 164.1937835181791) rotate(0 0.32124823551683335 22.807830031269816)" stroke="none"><path fill="#1e1e1e" d="M 1.86,0.09 Q 1.86,0.09 1.60,3.60 1.34,7.10 1.21,10.05 1.08,12.99 1.00,17.20 0.93,21.40 0.89,25.96 0.84,30.52 0.82,34.12 0.79,37.72 1.68,41.10 2.56,44.48 2.61,44.73 2.65,44.98 2.62,45.24 2.58,45.49 2.46,45.72 2.34,45.95 2.16,46.13 1.98,46.31 1.74,46.42 1.51,46.53 1.26,46.56 1.00,46.59 0.75,46.54 0.50,46.49 0.28,46.36 0.06,46.23 -0.10,46.04 -0.27,45.84 -0.37,45.61 -0.47,45.37 -0.49,45.11 -0.50,44.86 -0.44,44.61 -0.37,44.36 -0.23,44.14 -0.09,43.93 0.10,43.77 0.30,43.61 0.54,43.53 0.79,43.44 1.04,43.44 1.30,43.43 1.54,43.51 1.79,43.59 2.00,43.74 2.20,43.90 2.35,44.11 2.50,44.32 2.57,44.56 2.64,44.81 2.63,45.07 2.62,45.32 2.53,45.56 2.44,45.80 2.27,46.00 2.11,46.20 1.89,46.34 1.67,46.47 1.42,46.53 1.17,46.59 0.92,46.56 0.66,46.54 0.43,46.44 0.19,46.33 0.00,46.16 -0.17,45.98 -0.30,45.76 -0.42,45.53 -0.42,45.53 -0.42,45.53 -1.24,41.63 -2.05,37.72 -2.07,34.11 -2.09,30.51 -2.10,25.94 -2.12,21.38 -2.12,17.14 -2.13,12.91 -2.10,9.92 -2.08,6.92 -1.97,3.41 -1.86,-0.09 -1.82,-0.31 -1.78,-0.54 -1.69,-0.74 -1.60,-0.95 -1.46,-1.13 -1.33,-1.30 -1.15,-1.44 -0.97,-1.58 -0.77,-1.68 -0.56,-1.77 -0.34,-1.82 -0.12,-1.86 0.09,-1.85 0.32,-1.83 0.53,-1.77 0.75,-1.70 0.94,-1.59 1.13,-1.47 1.30,-1.32 1.46,-1.16 1.57,-0.97 1.69,-0.77 1.76,-0.56 1.83,-0.35 1.84,-0.12 1.86,0.09 1.86,0.09 L 1.86,0.09 Z"/></g><g transform="translate(44.693606661120214 205.31214010843996) rotate(0 6.745955208418195 3.854828479364727)" stroke="none"><path fill="#1e1e1e" d="M -1.68,-1.31 Q -1.68,-1.31 -0.30,-2.91 1.07,-4.51 3.13,-6.06 5.19,-7.60 7.06,-8.50 8.94,-9.40 10.79,-9.66 12.65,-9.92 13.60,-9.13 14.55,-8.34 14.76,-6.88 14.98,-5.42 13.66,-3.45 12.33,-1.48 11.05,-0.08 9.76,1.31 8.69,2.47 7.62,3.64 8.98,3.35 10.35,3.06 11.52,3.26 12.70,3.45 13.79,4.01 14.89,4.57 15.67,6.06 16.46,7.55 16.16,9.05 15.86,10.55 14.22,12.02 12.59,13.50 10.79,14.60 9.00,15.71 6.73,17.04 4.47,18.36 4.14,18.60 3.81,18.84 3.43,18.97 3.04,19.09 2.63,19.09 2.22,19.08 1.84,18.95 1.45,18.81 1.13,18.56 0.81,18.31 0.58,17.97 0.36,17.63 0.25,17.24 0.15,16.84 0.18,16.43 0.20,16.03 0.36,15.65 0.52,15.27 0.78,14.97 1.05,14.66 1.40,14.45 1.76,14.25 2.16,14.16 2.56,14.08 2.96,14.13 3.37,14.18 3.73,14.36 4.10,14.53 4.40,14.82 4.69,15.10 4.87,15.46 5.06,15.83 5.12,16.23 5.18,16.63 5.11,17.04 5.04,17.44 4.84,17.79 4.65,18.15 4.35,18.43 4.05,18.71 3.68,18.87 3.30,19.04 2.90,19.08 2.49,19.12 2.09,19.02 1.70,18.93 1.35,18.72 1.00,18.50 0.74,18.19 0.48,17.87 0.34,17.49 0.19,17.11 0.17,16.70 0.16,16.30 0.27,15.90 0.39,15.51 0.62,15.18 0.85,14.84 0.85,14.84 0.85,14.84 3.47,13.25 6.08,11.66 7.54,10.42 9.00,9.19 10.27,9.00 11.54,8.82 9.98,8.56 8.42,8.31 7.06,8.21 5.69,8.12 4.62,7.54 3.55,6.97 3.02,5.70 2.49,4.44 3.51,2.58 4.52,0.72 5.58,-0.36 6.65,-1.46 7.78,-2.77 8.90,-4.09 9.66,-5.15 10.42,-6.22 8.88,-5.52 7.35,-4.82 5.72,-3.47 4.09,-2.13 2.89,-0.41 1.68,1.31 1.50,1.49 1.32,1.67 1.10,1.80 0.88,1.94 0.63,2.02 0.39,2.09 0.13,2.11 -0.12,2.13 -0.37,2.08 -0.62,2.04 -0.86,1.93 -1.09,1.83 -1.30,1.67 -1.50,1.51 -1.66,1.31 -1.82,1.11 -1.92,0.87 -2.03,0.64 -2.08,0.38 -2.13,0.13 -2.11,-0.12 -2.10,-0.37 -2.02,-0.62 -1.94,-0.86 -1.81,-1.09 -1.68,-1.31 -1.68,-1.31 L -1.68,-1.31 Z"/></g><g transform="translate(92.23667022428242 161.62388354652285) rotate(0 -8.352174907882869 20.55917829513041)" stroke="none"><path fill="#1e1e1e" d="M 0.90,1.27 Q 0.90,1.27 -2.25,3.46 -5.41,5.65 -9.08,9.09 -12.75,12.53 -15.42,15.46 -18.09,18.38 -20.46,22.30 -22.83,26.21 -23.80,29.75 -24.77,33.28 -24.25,35.51 -23.72,37.74 -21.48,38.61 -19.23,39.48 -16.93,39.54 -14.63,39.61 -10.62,38.40 -6.61,37.18 -2.47,35.56 1.67,33.95 5.19,32.32 8.72,30.69 8.97,30.63 9.22,30.57 9.47,30.59 9.72,30.62 9.96,30.72 10.19,30.82 10.38,30.99 10.57,31.16 10.69,31.39 10.82,31.61 10.86,31.86 10.91,32.11 10.87,32.37 10.84,32.62 10.72,32.85 10.61,33.07 10.43,33.25 10.24,33.43 10.02,33.55 9.79,33.66 9.53,33.69 9.28,33.72 9.03,33.67 8.78,33.62 8.56,33.50 8.34,33.37 8.17,33.18 8.00,32.99 7.90,32.75 7.80,32.52 7.78,32.26 7.76,32.01 7.82,31.76 7.89,31.51 8.03,31.30 8.17,31.08 8.37,30.92 8.57,30.77 8.81,30.68 9.05,30.59 9.30,30.59 9.56,30.58 9.80,30.66 10.04,30.74 10.25,30.89 10.46,31.04 10.60,31.25 10.75,31.45 10.82,31.70 10.90,31.94 10.89,32.20 10.88,32.45 10.79,32.69 10.70,32.93 10.54,33.13 10.38,33.33 10.16,33.46 9.95,33.60 9.95,33.60 9.95,33.60 6.29,35.01 2.63,36.41 -1.61,38.07 -5.86,39.73 -10.28,41.00 -14.71,42.27 -17.49,42.10 -20.28,41.93 -23.03,40.50 -25.78,39.07 -26.59,35.90 -27.40,32.73 -26.30,28.77 -25.21,24.81 -22.70,20.65 -20.19,16.50 -17.46,13.47 -14.74,10.43 -10.94,6.82 -7.14,3.21 -4.02,0.96 -0.90,-1.27 -0.73,-1.36 -0.56,-1.45 -0.38,-1.50 -0.20,-1.54 -0.01,-1.55 0.17,-1.55 0.35,-1.50 0.53,-1.46 0.70,-1.38 0.87,-1.29 1.01,-1.17 1.15,-1.04 1.26,-0.89 1.37,-0.74 1.44,-0.56 1.51,-0.38 1.53,-0.20 1.56,-0.01 1.54,0.17 1.52,0.35 1.45,0.53 1.39,0.71 1.28,0.86 1.18,1.02 1.04,1.15 0.90,1.27 0.90,1.27 L 0.90,1.27 Z"/></g><g transform="translate(114.72327349815504 175.75831191251262) rotate(0 18.631731838268564 -1.284949985828149)" stroke="none"><path fill="#1e1e1e" d="M 0,-1.93 Q 0,-1.93 2.95,-1.84 5.90,-1.76 8.14,-2.06 10.38,-2.36 13.99,-2.84 17.59,-3.32 21.37,-3.70 25.14,-4.08 28.48,-4.05 31.81,-4.02 35.03,-3.15 38.25,-2.27 38.45,-2.11 38.64,-1.94 38.77,-1.72 38.90,-1.50 38.96,-1.25 39.01,-1.00 38.99,-0.75 38.96,-0.49 38.85,-0.26 38.74,-0.03 38.56,0.15 38.39,0.33 38.16,0.45 37.94,0.57 37.68,0.61 37.43,0.65 37.18,0.61 36.92,0.57 36.70,0.45 36.47,0.33 36.30,0.14 36.12,-0.03 36.01,-0.27 35.91,-0.50 35.88,-0.75 35.85,-1.01 35.91,-1.26 35.96,-1.51 36.10,-1.73 36.23,-1.95 36.42,-2.11 36.62,-2.28 36.86,-2.37 37.10,-2.47 37.35,-2.48 37.61,-2.49 37.85,-2.42 38.10,-2.35 38.31,-2.21 38.52,-2.07 38.68,-1.86 38.83,-1.66 38.91,-1.42 39.00,-1.17 38.99,-0.92 38.99,-0.66 38.91,-0.42 38.83,-0.18 38.67,0.02 38.52,0.22 38.31,0.36 38.09,0.51 37.85,0.58 37.60,0.64 37.35,0.63 37.09,0.61 36.85,0.52 36.61,0.42 36.61,0.42 36.61,0.42 34.21,-0.35 31.80,-1.14 28.63,-1.13 25.46,-1.12 21.75,-0.69 18.04,-0.25 14.46,0.31 10.89,0.88 8.40,1.32 5.91,1.76 2.95,1.84 0,1.93 -0.23,1.90 -0.46,1.87 -0.68,1.79 -0.89,1.71 -1.08,1.57 -1.28,1.44 -1.43,1.27 -1.59,1.09 -1.69,0.89 -1.80,0.68 -1.86,0.45 -1.91,0.23 -1.91,-0.00 -1.91,-0.23 -1.86,-0.45 -1.80,-0.68 -1.69,-0.89 -1.59,-1.09 -1.43,-1.27 -1.28,-1.44 -1.08,-1.57 -0.89,-1.71 -0.68,-1.79 -0.46,-1.87 -0.23,-1.90 0.00,-1.93 0.00,-1.93 L 0,-1.93 Z"/></g><g transform="translate(200.81475072368255 164.1937835181791) rotate(0 -14.13440688787017 18.310505080871394)" stroke="none"><path fill="#1e1e1e" d="M -0.90,1.35 Q -0.90,1.35 -1.96,0.72 -3.02,0.08 -4.52,0.23 -6.02,0.38 -8.41,1.39 -10.81,2.40 -13.64,4.58 -16.47,6.77 -19.33,9.87 -22.19,12.96 -24.16,15.38 -26.13,17.79 -27.44,20.89 -28.76,23.98 -29.32,27.06 -29.88,30.13 -29.64,31.94 -29.39,33.75 -28.00,34.87 -26.60,36.00 -24.00,36.48 -21.40,36.96 -17.65,36.12 -13.90,35.28 -9.83,34.19 -5.76,33.10 -1.92,32.30 1.90,31.50 2.16,31.49 2.41,31.49 2.66,31.57 2.90,31.65 3.11,31.80 3.31,31.95 3.46,32.16 3.60,32.37 3.67,32.62 3.74,32.87 3.73,33.12 3.72,33.38 3.63,33.62 3.54,33.86 3.37,34.05 3.21,34.25 2.99,34.38 2.78,34.52 2.53,34.58 2.28,34.63 2.02,34.61 1.77,34.58 1.53,34.48 1.30,34.37 1.11,34.20 0.93,34.02 0.80,33.80 0.68,33.58 0.64,33.32 0.59,33.07 0.63,32.82 0.67,32.57 0.79,32.34 0.90,32.11 1.09,31.93 1.27,31.75 1.50,31.64 1.73,31.53 1.99,31.50 2.24,31.47 2.49,31.53 2.74,31.58 2.96,31.71 3.19,31.84 3.35,32.03 3.52,32.22 3.62,32.46 3.72,32.70 3.73,32.95 3.75,33.21 3.68,33.46 3.62,33.70 3.48,33.92 3.33,34.13 3.13,34.29 2.93,34.44 2.69,34.53 2.45,34.61 2.45,34.61 2.45,34.61 -1.31,35.14 -5.07,35.67 -9.21,36.78 -13.35,37.88 -17.60,38.73 -21.86,39.58 -25.05,38.83 -28.25,38.08 -30.07,36.30 -31.88,34.51 -32.24,32.10 -32.60,29.68 -31.97,26.28 -31.35,22.89 -29.87,19.45 -28.39,16.01 -26.39,13.48 -24.39,10.96 -21.39,7.64 -18.39,4.33 -15.25,1.86 -12.11,-0.60 -9.16,-1.86 -6.20,-3.12 -3.80,-3.08 -1.40,-3.04 -0.25,-2.19 0.90,-1.35 1.05,-1.22 1.20,-1.10 1.31,-0.94 1.43,-0.78 1.50,-0.59 1.57,-0.41 1.60,-0.22 1.63,-0.02 1.61,0.16 1.58,0.36 1.52,0.54 1.45,0.73 1.34,0.89 1.23,1.06 1.09,1.19 0.94,1.32 0.77,1.42 0.60,1.51 0.41,1.56 0.22,1.61 0.02,1.61 -0.17,1.62 -0.36,1.57 -0.55,1.53 -0.72,1.44 -0.90,1.35 -0.90,1.35 L -0.90,1.35 Z"/></g><g transform="translate(222.6589004827607 161.62388354652285) rotate(0 -0.6424749929140603 17.668030087957305)" stroke="none"><path fill="#1e1e1e" d="M 1.85,0.24 Q 1.85,0.24 1.41,3.00 0.97,5.76 0.76,9.08 0.55,12.40 0.45,16.03 0.34,19.67 0.28,22.14 0.22,24.62 0.19,26.96 0.16,29.30 0.26,31.77 0.36,34.25 0.32,34.51 0.28,34.77 0.15,35.01 0.02,35.24 -0.16,35.43 -0.35,35.61 -0.60,35.72 -0.84,35.83 -1.11,35.86 -1.37,35.89 -1.63,35.83 -1.89,35.77 -2.12,35.63 -2.35,35.49 -2.52,35.29 -2.69,35.09 -2.79,34.84 -2.89,34.59 -2.90,34.32 -2.92,34.06 -2.84,33.80 -2.77,33.54 -2.62,33.32 -2.47,33.10 -2.26,32.94 -2.05,32.78 -1.79,32.70 -1.54,32.61 -1.27,32.61 -1.00,32.61 -0.75,32.70 -0.50,32.78 -0.29,32.95 -0.08,33.11 0.06,33.33 0.21,33.55 0.28,33.81 0.35,34.07 0.34,34.33 0.32,34.60 0.22,34.85 0.12,35.10 -0.04,35.30 -0.21,35.50 -0.44,35.64 -0.67,35.78 -0.93,35.83 -1.19,35.89 -1.46,35.86 -1.72,35.83 -1.97,35.72 -2.21,35.60 -2.40,35.42 -2.59,35.23 -2.72,35.00 -2.84,34.76 -2.88,34.50 -2.93,34.23 -2.93,34.24 -2.93,34.24 -2.81,31.76 -2.69,29.29 -2.70,26.93 -2.71,24.58 -2.71,22.10 -2.71,19.61 -2.69,15.93 -2.66,12.25 -2.55,8.78 -2.44,5.31 -2.15,2.53 -1.85,-0.24 -1.80,-0.46 -1.74,-0.68 -1.63,-0.88 -1.53,-1.08 -1.37,-1.25 -1.22,-1.41 -1.03,-1.54 -0.85,-1.67 -0.63,-1.74 -0.42,-1.82 -0.20,-1.85 0.02,-1.87 0.24,-1.84 0.47,-1.81 0.68,-1.73 0.89,-1.65 1.07,-1.51 1.26,-1.38 1.40,-1.21 1.55,-1.04 1.65,-0.84 1.76,-0.64 1.81,-0.42 1.86,-0.20 1.86,0.02 1.85,0.24 1.85,0.24 L 1.85,0.24 Z"/></g><g transform="translate(223.30135399755517 175.75831191251262) rotate(0 10.279578408505387 -3.2123642255104983)" stroke="none"><path fill="#1e1e1e" d="M -0.52,-1.96 Q -0.52,-1.96 2.27,-2.60 5.06,-3.25 7.74,-3.87 10.42,-4.48 12.79,-5.26 15.16,-6.03 17.10,-6.89 19.03,-7.74 19.31,-7.80 19.59,-7.86 19.88,-7.83 20.17,-7.79 20.43,-7.67 20.69,-7.55 20.90,-7.35 21.10,-7.15 21.24,-6.89 21.37,-6.63 21.41,-6.35 21.46,-6.06 21.41,-5.78 21.36,-5.49 21.22,-5.24 21.09,-4.99 20.87,-4.79 20.66,-4.59 20.40,-4.48 20.14,-4.36 19.85,-4.33 19.56,-4.30 19.28,-4.36 19.00,-4.43 18.76,-4.58 18.51,-4.73 18.32,-4.95 18.14,-5.17 18.04,-5.44 17.93,-5.71 17.92,-6.00 17.90,-6.29 17.98,-6.56 18.06,-6.84 18.23,-7.08 18.39,-7.32 18.62,-7.49 18.85,-7.66 19.13,-7.75 19.40,-7.84 19.69,-7.84 19.98,-7.83 20.25,-7.74 20.52,-7.65 20.75,-7.47 20.98,-7.29 21.14,-7.05 21.30,-6.81 21.37,-6.53 21.45,-6.26 21.43,-5.97 21.41,-5.68 21.30,-5.41 21.20,-5.15 21.01,-4.93 20.82,-4.71 20.57,-4.56 20.32,-4.42 20.32,-4.42 20.32,-4.42 18.27,-3.72 16.21,-3.02 13.74,-2.11 11.27,-1.20 8.64,-0.45 6.01,0.29 3.26,1.13 0.52,1.96 0.28,1.99 0.03,2.02 -0.20,2.00 -0.44,1.98 -0.67,1.89 -0.90,1.81 -1.11,1.67 -1.31,1.54 -1.48,1.36 -1.64,1.18 -1.76,0.97 -1.88,0.75 -1.94,0.51 -2.01,0.28 -2.01,0.03 -2.01,-0.20 -1.96,-0.44 -1.91,-0.68 -1.80,-0.90 -1.69,-1.12 -1.53,-1.30 -1.37,-1.49 -1.17,-1.63 -0.97,-1.77 -0.75,-1.87 -0.52,-1.96 -0.52,-1.96 L -0.52,-1.96 Z"/></g><g transform="translate(242.57556082873776 157.76903358903843) rotate(0 -0.9637017503112588 19.274228309302316)" stroke="none"><path fill="#1e1e1e" d="M 1.84,0 Q 1.84,0 1.76,3.32 1.69,6.64 1.46,10.50 1.22,14.35 0.92,18.20 0.61,22.05 0.29,24.64 -0.03,27.23 -0.17,29.56 -0.32,31.89 -0.28,34.63 -0.24,37.37 -0.29,37.64 -0.34,37.90 -0.47,38.13 -0.60,38.36 -0.80,38.54 -1.00,38.72 -1.24,38.83 -1.49,38.93 -1.76,38.95 -2.02,38.98 -2.28,38.91 -2.54,38.85 -2.77,38.70 -2.99,38.56 -3.16,38.35 -3.33,38.14 -3.42,37.89 -3.51,37.64 -3.52,37.37 -3.53,37.10 -3.45,36.85 -3.37,36.59 -3.21,36.38 -3.06,36.16 -2.84,36.00 -2.62,35.85 -2.37,35.77 -2.11,35.69 -1.84,35.70 -1.58,35.70 -1.32,35.80 -1.07,35.89 -0.87,36.06 -0.66,36.22 -0.51,36.45 -0.37,36.68 -0.30,36.94 -0.24,37.20 -0.26,37.46 -0.28,37.73 -0.39,37.97 -0.50,38.22 -0.68,38.42 -0.85,38.62 -1.09,38.75 -1.32,38.88 -1.58,38.93 -1.85,38.98 -2.11,38.94 -2.38,38.91 -2.62,38.79 -2.85,38.67 -3.04,38.48 -3.23,38.29 -3.35,38.05 -3.47,37.81 -3.51,37.55 -3.54,37.28 -3.54,37.28 -3.54,37.28 -3.35,34.51 -3.16,31.74 -3.05,29.31 -2.94,26.89 -2.67,24.37 -2.41,21.84 -2.18,18.02 -1.96,14.20 -1.83,10.42 -1.69,6.64 -1.76,3.32 -1.84,0 -1.81,-0.22 -1.78,-0.44 -1.70,-0.64 -1.63,-0.85 -1.50,-1.03 -1.37,-1.22 -1.21,-1.36 -1.04,-1.51 -0.84,-1.61 -0.65,-1.72 -0.43,-1.77 -0.22,-1.82 0.00,-1.82 0.22,-1.82 0.43,-1.77 0.65,-1.72 0.84,-1.61 1.04,-1.51 1.21,-1.36 1.37,-1.22 1.50,-1.03 1.63,-0.85 1.70,-0.64 1.78,-0.44 1.81,-0.22 1.84,0.00 1.84,0.00 L 1.84,0 Z"/></g><g transform="translate(250.28526074370654 197.60244019347118) rotate(0 11.885776629850369 4.818551707795649)" stroke="none"><path fill="#1e1e1e" d="M -0.74,-1.86 Q -0.74,-1.86 1.12,-2.54 2.99,-3.23 5.29,-4.03 7.59,-4.83 9.55,-5.39 11.51,-5.95 12.88,-6.27 14.25,-6.59 15.37,-6.22 16.48,-5.84 17.12,-4.85 17.76,-3.86 17.57,-2.14 17.38,-0.42 15.89,1.62 14.40,3.67 12.44,5.75 10.48,7.83 9.09,9.13 7.71,10.43 6.38,11.56 5.06,12.70 7.13,12.50 9.20,12.31 11.07,12.26 12.94,12.21 14.94,12.21 16.95,12.20 18.21,11.96 19.47,11.71 21.17,11.51 22.87,11.31 23.23,11.34 23.59,11.37 23.93,11.52 24.26,11.66 24.53,11.90 24.79,12.15 24.97,12.46 25.15,12.78 25.22,13.13 25.28,13.49 25.23,13.85 25.18,14.21 25.02,14.53 24.86,14.85 24.61,15.11 24.35,15.36 24.02,15.52 23.70,15.68 23.34,15.73 22.98,15.78 22.63,15.71 22.27,15.64 21.96,15.46 21.64,15.28 21.40,15.01 21.16,14.74 21.02,14.41 20.88,14.08 20.85,13.72 20.82,13.36 20.91,13.01 21.00,12.65 21.19,12.35 21.39,12.05 21.67,11.82 21.95,11.59 22.29,11.47 22.63,11.35 22.99,11.34 23.36,11.33 23.70,11.44 24.05,11.54 24.34,11.75 24.63,11.97 24.84,12.26 25.05,12.56 25.16,12.90 25.27,13.25 25.25,13.61 25.24,13.97 25.12,14.31 24.99,14.65 24.76,14.93 24.54,15.21 24.23,15.41 23.93,15.60 23.58,15.69 23.22,15.77 23.22,15.77 23.22,15.77 21.67,15.83 20.11,15.89 18.60,16.07 17.09,16.25 15.18,16.38 13.27,16.51 11.14,16.77 9.01,17.04 7.18,16.98 5.35,16.93 4.18,16.60 3.02,16.27 2.11,15.43 1.20,14.58 1.14,12.98 1.09,11.39 1.86,10.59 2.64,9.80 3.92,8.77 5.19,7.74 6.46,6.56 7.73,5.39 9.40,3.37 11.06,1.36 11.76,-0.66 12.46,-2.68 10.65,-2.14 8.84,-1.59 6.61,-0.65 4.39,0.28 2.57,1.07 0.74,1.86 0.51,1.92 0.27,1.98 0.03,1.99 -0.20,1.99 -0.44,1.94 -0.67,1.88 -0.89,1.78 -1.11,1.67 -1.29,1.51 -1.47,1.35 -1.61,1.16 -1.76,0.96 -1.85,0.74 -1.94,0.51 -1.97,0.27 -2.00,0.03 -1.98,-0.20 -1.95,-0.44 -1.87,-0.67 -1.79,-0.90 -1.66,-1.10 -1.52,-1.30 -1.34,-1.46 -1.16,-1.63 -0.95,-1.74 -0.74,-1.86 -0.74,-1.86 L -0.74,-1.86 Z"/></g><g transform="translate(293.33102083458994 174.4733619266845) rotate(0 20.880383574407972 0.6424749929140603)" stroke="none"><path fill="#1e1e1e" d="M 0.49,-1.80 Q 0.49,-1.80 2.49,-1.18 4.50,-0.56 7.92,-0.48 11.35,-0.40 15.97,-0.71 20.58,-1.01 23.85,-1.31 27.12,-1.61 30.77,-1.74 34.43,-1.86 36.90,-1.90 39.37,-1.95 41.24,-1.81 43.11,-1.67 43.36,-1.59 43.61,-1.52 43.81,-1.37 44.02,-1.22 44.17,-1.02 44.33,-0.81 44.40,-0.56 44.48,-0.32 44.47,-0.06 44.47,0.18 44.38,0.42 44.30,0.67 44.14,0.87 43.98,1.07 43.76,1.21 43.55,1.35 43.30,1.41 43.05,1.47 42.79,1.45 42.54,1.44 42.30,1.34 42.07,1.24 41.87,1.07 41.68,0.90 41.55,0.67 41.43,0.45 41.38,0.20 41.33,-0.04 41.36,-0.30 41.39,-0.55 41.51,-0.78 41.62,-1.01 41.80,-1.19 41.98,-1.38 42.21,-1.49 42.44,-1.61 42.69,-1.64 42.94,-1.68 43.20,-1.63 43.45,-1.59 43.67,-1.46 43.90,-1.34 44.07,-1.15 44.24,-0.96 44.34,-0.72 44.45,-0.49 44.47,-0.23 44.49,0.01 44.43,0.26 44.37,0.51 44.23,0.73 44.10,0.95 43.90,1.11 43.70,1.27 43.46,1.36 43.22,1.45 42.96,1.46 42.71,1.47 42.71,1.47 42.71,1.47 41.07,1.15 39.44,0.84 36.99,0.91 34.54,0.99 30.98,1.15 27.41,1.31 24.11,1.68 20.81,2.04 16.06,2.43 11.30,2.82 7.46,2.80 3.62,2.77 1.56,2.29 -0.49,1.80 -0.70,1.71 -0.90,1.63 -1.09,1.50 -1.27,1.36 -1.41,1.19 -1.56,1.02 -1.66,0.82 -1.76,0.61 -1.81,0.39 -1.86,0.17 -1.85,-0.04 -1.84,-0.27 -1.79,-0.48 -1.73,-0.70 -1.62,-0.90 -1.51,-1.09 -1.35,-1.26 -1.20,-1.42 -1.01,-1.55 -0.82,-1.67 -0.61,-1.75 -0.40,-1.82 -0.17,-1.84 0.04,-1.86 0.26,-1.83 0.49,-1.80 0.49,-1.80 L 0.49,-1.80 Z"/></g><g transform="translate(373.64028755824984 156.48410508132997) rotate(0 -7.067246400174383 18.631731838268593)" stroke="none"><path fill="#1e1e1e" d="M 0.14,1.57 Q 0.14,1.57 -1.85,1.73 -3.86,1.89 -5.92,3.14 -7.98,4.39 -10.51,6.68 -13.04,8.97 -15.31,15.27 -17.58,21.57 -17.48,25.37 -17.39,29.17 -16.04,31.29 -14.69,33.42 -12.30,34.25 -9.90,35.09 -8.06,35.11 -6.22,35.13 -3.68,34.46 -1.15,33.78 2.52,32.45 6.20,31.13 6.45,31.09 6.71,31.05 6.97,31.10 7.22,31.14 7.45,31.27 7.68,31.39 7.85,31.58 8.03,31.77 8.14,32.01 8.24,32.24 8.27,32.50 8.29,32.76 8.23,33.01 8.17,33.27 8.04,33.49 7.90,33.71 7.70,33.87 7.50,34.04 7.26,34.13 7.02,34.22 6.76,34.24 6.50,34.25 6.25,34.17 6.00,34.10 5.79,33.95 5.58,33.81 5.42,33.60 5.27,33.39 5.19,33.14 5.11,32.90 5.11,32.64 5.11,32.38 5.20,32.13 5.28,31.89 5.44,31.68 5.60,31.48 5.82,31.34 6.04,31.19 6.29,31.13 6.54,31.06 6.80,31.08 7.05,31.09 7.29,31.19 7.53,31.29 7.73,31.46 7.93,31.63 8.06,31.86 8.19,32.08 8.24,32.33 8.29,32.59 8.26,32.84 8.23,33.10 8.12,33.34 8.01,33.57 7.83,33.76 7.65,33.94 7.42,34.06 7.19,34.18 7.19,34.18 7.19,34.18 3.35,35.29 -0.47,36.40 -3.38,37.13 -6.29,37.87 -8.56,37.74 -10.84,37.61 -13.80,36.33 -16.75,35.06 -18.42,32.24 -20.10,29.41 -20.16,25.04 -20.23,20.66 -17.65,13.82 -15.07,6.97 -12.28,4.40 -9.50,1.83 -6.88,0.33 -4.26,-1.15 -2.20,-1.36 -0.14,-1.57 0.04,-1.57 0.23,-1.56 0.42,-1.51 0.60,-1.46 0.77,-1.36 0.93,-1.27 1.07,-1.14 1.21,-1.01 1.32,-0.85 1.42,-0.69 1.48,-0.51 1.54,-0.33 1.56,-0.14 1.58,0.04 1.55,0.23 1.52,0.42 1.45,0.60 1.37,0.77 1.26,0.93 1.15,1.08 1.00,1.20 0.85,1.33 0.68,1.41 0.51,1.49 0.32,1.53 0.14,1.57 0.14,1.57 L 0.14,1.57 Z"/></g><g transform="translate(392.27204087463804 158.4115085819525) rotate(0 1.2849499858281206 16.061864083791818)" stroke="none"><path fill="#1e1e1e" d="M 2.10,-0.11 Q 2.10,-0.11 2.18,3.21 2.26,6.54 2.26,9.83 2.26,13.12 2.42,16.13 2.58,19.14 2.86,20.93 3.15,22.71 3.49,24.40 3.82,26.08 4.11,28.76 4.39,31.43 4.36,31.73 4.33,32.03 4.20,32.31 4.08,32.58 3.87,32.80 3.67,33.02 3.40,33.16 3.13,33.31 2.84,33.36 2.54,33.41 2.24,33.36 1.95,33.31 1.68,33.17 1.41,33.03 1.20,32.82 1.00,32.60 0.87,32.33 0.74,32.05 0.71,31.75 0.67,31.45 0.73,31.16 0.80,30.87 0.95,30.61 1.11,30.35 1.33,30.15 1.56,29.96 1.84,29.84 2.12,29.73 2.42,29.71 2.72,29.69 3.01,29.77 3.30,29.85 3.55,30.02 3.80,30.19 3.99,30.43 4.17,30.66 4.27,30.95 4.37,31.23 4.37,31.53 4.37,31.84 4.27,32.12 4.18,32.41 4.00,32.65 3.82,32.89 3.57,33.06 3.32,33.23 3.03,33.31 2.74,33.39 2.44,33.38 2.14,33.36 1.86,33.25 1.58,33.14 1.35,32.95 1.12,32.76 0.96,32.50 0.81,32.24 0.74,31.95 0.67,31.66 0.67,31.66 0.67,31.66 0.54,29.17 0.41,26.68 0.14,24.94 -0.12,23.21 -0.38,21.29 -0.65,19.38 -0.93,16.29 -1.21,13.21 -1.36,9.98 -1.52,6.75 -1.81,3.43 -2.10,0.11 -2.08,-0.13 -2.07,-0.38 -1.99,-0.63 -1.91,-0.87 -1.78,-1.09 -1.65,-1.30 -1.47,-1.48 -1.29,-1.66 -1.07,-1.79 -0.85,-1.92 -0.61,-1.99 -0.36,-2.07 -0.11,-2.08 0.13,-2.10 0.38,-2.05 0.63,-2.00 0.86,-1.90 1.09,-1.79 1.29,-1.63 1.49,-1.48 1.65,-1.28 1.80,-1.08 1.91,-0.84 2.01,-0.61 2.05,-0.36 2.10,-0.11 2.10,-0.11 L 2.10,-0.11 Z"/></g><g transform="translate(394.19940141902134 170.61853344731975) rotate(0 12.20700338724754 -1.2849499858281206)" stroke="none"><path fill="#1e1e1e" d="M -0.24,-1.94 Q -0.24,-1.94 2.72,-2.22 5.68,-2.51 7.72,-2.64 9.76,-2.76 11.87,-2.96 13.99,-3.15 16.25,-3.22 18.51,-3.29 20.81,-3.72 23.12,-4.14 23.40,-4.13 23.68,-4.13 23.95,-4.03 24.21,-3.93 24.43,-3.76 24.65,-3.58 24.80,-3.35 24.95,-3.11 25.02,-2.84 25.09,-2.56 25.07,-2.28 25.04,-2.00 24.93,-1.74 24.82,-1.49 24.63,-1.28 24.45,-1.07 24.20,-0.93 23.96,-0.79 23.68,-0.74 23.41,-0.68 23.13,-0.72 22.85,-0.76 22.60,-0.88 22.34,-1.01 22.15,-1.21 21.95,-1.40 21.82,-1.66 21.70,-1.91 21.66,-2.19 21.62,-2.47 21.67,-2.74 21.72,-3.02 21.86,-3.26 22.00,-3.51 22.21,-3.70 22.42,-3.88 22.68,-4.00 22.94,-4.11 23.22,-4.13 23.50,-4.15 23.77,-4.09 24.04,-4.02 24.28,-3.87 24.52,-3.72 24.69,-3.50 24.87,-3.28 24.97,-3.01 25.06,-2.75 25.07,-2.47 25.08,-2.19 25.00,-1.92 24.91,-1.65 24.75,-1.42 24.59,-1.19 24.36,-1.03 24.13,-0.86 23.86,-0.78 23.59,-0.70 23.59,-0.70 23.59,-0.70 21.13,-0.47 18.66,-0.24 16.51,-0.09 14.36,0.04 12.20,0.35 10.03,0.66 8.08,0.84 6.13,1.03 3.18,1.49 0.24,1.94 0.00,1.94 -0.22,1.94 -0.45,1.89 -0.68,1.83 -0.89,1.72 -1.10,1.61 -1.28,1.46 -1.46,1.30 -1.59,1.11 -1.73,0.91 -1.81,0.69 -1.90,0.47 -1.93,0.24 -1.96,0.00 -1.93,-0.22 -1.90,-0.46 -1.82,-0.68 -1.73,-0.90 -1.60,-1.10 -1.47,-1.29 -1.29,-1.45 -1.11,-1.60 -0.91,-1.72 -0.70,-1.83 -0.47,-1.88 -0.24,-1.94 -0.24,-1.94 L -0.24,-1.94 Z"/></g><g transform="translate(414.116147677477 153.2717301167596) rotate(0 1.2849499858281206 17.346803330560107)" stroke="none"><path fill="#1e1e1e" d="M 1.89,0 Q 1.89,0 1.81,2.40 1.73,4.80 1.86,7.61 1.98,10.43 2.02,13.90 2.06,17.37 2.06,19.76 2.06,22.15 2.06,24.64 2.05,27.14 2.42,28.99 2.79,30.84 3.34,32.19 3.88,33.53 3.92,33.79 3.97,34.05 3.92,34.30 3.88,34.56 3.76,34.79 3.63,35.02 3.44,35.20 3.25,35.38 3.02,35.49 2.78,35.60 2.52,35.63 2.26,35.66 2.00,35.60 1.75,35.54 1.52,35.41 1.30,35.27 1.13,35.07 0.96,34.87 0.87,34.63 0.77,34.39 0.75,34.13 0.74,33.87 0.81,33.61 0.88,33.36 1.03,33.15 1.18,32.93 1.38,32.77 1.59,32.61 1.84,32.53 2.09,32.45 2.35,32.45 2.61,32.45 2.86,32.53 3.11,32.62 3.32,32.77 3.52,32.93 3.67,33.15 3.82,33.37 3.89,33.62 3.96,33.87 3.94,34.13 3.93,34.39 3.83,34.64 3.73,34.88 3.56,35.08 3.39,35.28 3.17,35.41 2.94,35.55 2.69,35.60 2.43,35.66 2.17,35.63 1.91,35.60 1.68,35.49 1.44,35.38 1.25,35.20 1.06,35.02 0.94,34.79 0.82,34.56 0.82,34.56 0.82,34.56 0.38,32.97 -0.05,31.39 -0.43,29.28 -0.81,27.16 -0.84,24.68 -0.88,22.19 -0.94,19.81 -1.01,17.44 -1.13,14.04 -1.24,10.64 -1.49,7.72 -1.73,4.80 -1.81,2.40 -1.89,0 -1.86,-0.22 -1.83,-0.45 -1.75,-0.66 -1.67,-0.87 -1.54,-1.06 -1.41,-1.25 -1.24,-1.40 -1.07,-1.55 -0.87,-1.66 -0.67,-1.76 -0.44,-1.82 -0.22,-1.87 0.00,-1.87 0.22,-1.87 0.44,-1.82 0.67,-1.76 0.87,-1.66 1.07,-1.55 1.24,-1.40 1.41,-1.25 1.54,-1.06 1.67,-0.87 1.75,-0.66 1.83,-0.45 1.86,-0.22 1.89,0.00 1.89,0.00 L 1.89,0 Z"/></g><g transform="translate(424.39574756410195 188.60779029267428) rotate(0 9.637103415591355 3.5336232000871632)" stroke="none"><path fill="#1e1e1e" d="M -0.92,-2.22 Q -0.92,-2.22 1.34,-3.01 3.61,-3.80 5.24,-4.26 6.87,-4.71 8.82,-4.53 10.76,-4.35 11.42,-3.38 12.09,-2.41 11.68,-0.59 11.27,1.22 9.91,2.76 8.55,4.31 7.71,5.23 6.88,6.16 5.96,7.12 5.05,8.07 6.86,7.78 8.66,7.49 10.28,7.42 11.91,7.35 13.27,7.27 14.63,7.18 16.51,7.10 18.40,7.01 18.82,7.07 19.24,7.13 19.62,7.32 20.01,7.51 20.31,7.82 20.61,8.12 20.80,8.50 20.98,8.89 21.04,9.31 21.10,9.73 21.01,10.15 20.93,10.57 20.72,10.94 20.51,11.32 20.19,11.60 19.87,11.88 19.47,12.05 19.08,12.22 18.65,12.25 18.23,12.28 17.81,12.18 17.40,12.07 17.04,11.84 16.68,11.61 16.42,11.27 16.15,10.94 16.00,10.54 15.86,10.14 15.85,9.71 15.84,9.28 15.97,8.87 16.09,8.47 16.34,8.12 16.60,7.77 16.94,7.53 17.29,7.28 17.70,7.15 18.11,7.03 18.54,7.04 18.96,7.06 19.37,7.21 19.77,7.36 20.10,7.63 20.43,7.90 20.66,8.26 20.89,8.62 20.99,9.03 21.09,9.45 21.05,9.87 21.02,10.30 20.84,10.69 20.67,11.08 20.39,11.40 20.10,11.72 19.73,11.93 19.35,12.13 18.93,12.21 18.51,12.29 18.51,12.29 18.51,12.29 16.70,12.29 14.89,12.28 13.63,12.34 12.37,12.39 10.42,12.65 8.48,12.90 6.78,12.90 5.08,12.90 3.43,12.59 1.78,12.27 0.65,10.89 -0.47,9.50 0.51,7.04 1.49,4.58 2.40,3.68 3.32,2.77 4.17,1.92 5.02,1.08 6.49,0.26 7.97,-0.54 6.60,-0.21 5.24,0.11 3.08,1.16 0.92,2.22 0.64,2.30 0.36,2.37 0.07,2.38 -0.21,2.39 -0.49,2.33 -0.78,2.27 -1.04,2.15 -1.30,2.02 -1.52,1.83 -1.74,1.65 -1.92,1.42 -2.09,1.18 -2.20,0.91 -2.31,0.65 -2.36,0.36 -2.40,0.07 -2.38,-0.21 -2.35,-0.50 -2.26,-0.77 -2.16,-1.04 -2.00,-1.29 -1.85,-1.53 -1.64,-1.73 -1.43,-1.93 -1.17,-2.07 -0.92,-2.22 -0.92,-2.22 L -0.92,-2.22 Z"/></g><g transform="translate(474.50862518644175 170.61849049108037) rotate(0 28.590083489376752 1.2849499858281206)" stroke="none"><path fill="#1e1e1e" d="M 0.40,-1.63 Q 0.40,-1.63 2.61,-1.03 4.81,-0.42 6.76,-0.19 8.70,0.04 11.95,0.36 15.20,0.67 19.32,0.81 23.44,0.95 27.94,0.84 32.43,0.72 35.63,0.49 38.82,0.26 43.15,-0.01 47.48,-0.28 49.69,-0.40 51.91,-0.52 53.95,-0.95 55.99,-1.39 56.25,-1.39 56.50,-1.39 56.74,-1.30 56.98,-1.22 57.18,-1.07 57.38,-0.91 57.52,-0.70 57.66,-0.49 57.73,-0.25 57.79,-0.01 57.78,0.24 57.76,0.49 57.67,0.72 57.57,0.96 57.41,1.15 57.24,1.34 57.03,1.47 56.81,1.60 56.56,1.65 56.31,1.70 56.06,1.68 55.81,1.65 55.58,1.54 55.35,1.43 55.17,1.26 54.99,1.08 54.87,0.86 54.75,0.63 54.72,0.38 54.68,0.14 54.72,-0.10 54.76,-0.35 54.88,-0.58 55.00,-0.80 55.18,-0.97 55.37,-1.14 55.60,-1.25 55.83,-1.35 56.08,-1.38 56.33,-1.41 56.58,-1.35 56.82,-1.29 57.04,-1.16 57.26,-1.03 57.42,-0.84 57.58,-0.64 57.67,-0.41 57.77,-0.17 57.78,0.07 57.79,0.32 57.72,0.56 57.65,0.81 57.51,1.02 57.37,1.22 57.16,1.38 56.96,1.53 56.72,1.61 56.48,1.69 56.48,1.69 56.48,1.69 54.27,1.92 52.06,2.16 49.86,2.29 47.66,2.42 43.34,2.71 39.02,3.01 35.77,3.26 32.52,3.52 27.94,3.67 23.36,3.82 19.15,3.72 14.95,3.62 11.65,3.36 8.35,3.11 6.20,2.87 4.05,2.64 1.82,2.13 -0.40,1.63 -0.59,1.56 -0.78,1.48 -0.95,1.37 -1.12,1.25 -1.25,1.10 -1.38,0.95 -1.48,0.77 -1.57,0.59 -1.62,0.39 -1.67,0.19 -1.67,-0.00 -1.67,-0.20 -1.62,-0.40 -1.57,-0.60 -1.47,-0.78 -1.38,-0.96 -1.24,-1.11 -1.11,-1.26 -0.94,-1.37 -0.77,-1.49 -0.58,-1.56 -0.39,-1.63 -0.19,-1.66 0.00,-1.68 0.20,-1.65 0.40,-1.63 0.40,-1.63 L 0.40,-1.63 Z"/></g><g transform="translate(581.1593451414585 152.62923364572583) rotate(0 -7.388473157571525 17.989267584414364)" stroke="none"><path fill="#1e1e1e" d="M -0.20,1.62 Q -0.20,1.62 -1.59,1.50 -2.98,1.37 -4.86,2.44 -6.74,3.51 -9.23,5.89 -11.71,8.28 -13.73,10.57 -15.75,12.87 -17.47,16.13 -19.19,19.38 -19.90,22.67 -20.62,25.96 -20.21,28.48 -19.81,31.00 -19.01,32.45 -18.21,33.89 -16.45,34.57 -14.69,35.25 -12.02,35.41 -9.35,35.58 -6.10,34.77 -2.85,33.96 1.46,32.07 5.78,30.18 6.03,30.12 6.28,30.06 6.54,30.09 6.79,30.11 7.02,30.22 7.26,30.32 7.44,30.50 7.63,30.67 7.75,30.90 7.87,31.12 7.92,31.37 7.96,31.62 7.92,31.88 7.88,32.13 7.76,32.36 7.65,32.58 7.46,32.76 7.28,32.94 7.05,33.05 6.82,33.16 6.56,33.19 6.31,33.21 6.06,33.16 5.81,33.11 5.59,32.98 5.37,32.85 5.20,32.66 5.04,32.46 4.94,32.23 4.84,31.99 4.83,31.73 4.81,31.48 4.88,31.23 4.94,30.99 5.08,30.77 5.23,30.56 5.43,30.40 5.63,30.25 5.87,30.16 6.11,30.08 6.37,30.08 6.62,30.08 6.87,30.16 7.11,30.24 7.31,30.39 7.52,30.54 7.66,30.75 7.81,30.96 7.88,31.21 7.95,31.45 7.94,31.71 7.93,31.96 7.83,32.20 7.74,32.44 7.58,32.64 7.41,32.83 7.20,32.97 6.98,33.10 6.98,33.10 6.98,33.10 2.38,34.85 -2.20,36.60 -5.85,37.47 -9.51,38.33 -12.64,38.08 -15.78,37.83 -18.12,36.67 -20.47,35.51 -21.50,33.48 -22.53,31.46 -22.95,28.44 -23.38,25.42 -22.57,21.74 -21.76,18.06 -19.90,14.50 -18.03,10.93 -15.96,8.48 -13.89,6.02 -11.11,3.31 -8.32,0.60 -5.62,-0.75 -2.92,-2.11 -1.36,-1.87 0.20,-1.62 0.39,-1.58 0.58,-1.53 0.76,-1.44 0.93,-1.34 1.08,-1.21 1.23,-1.08 1.34,-0.92 1.45,-0.75 1.52,-0.57 1.59,-0.38 1.61,-0.19 1.64,0.00 1.61,0.20 1.59,0.39 1.52,0.58 1.45,0.76 1.33,0.93 1.22,1.09 1.07,1.22 0.92,1.35 0.75,1.44 0.57,1.53 0.38,1.58 0.19,1.63 -0.00,1.62 -0.20,1.62 -0.20,1.62 L -0.20,1.62 Z"/></g><g transform="translate(604.2883589738863 150.0593336740696) rotate(0 -1.9274035006225176 18.631753316388227)" stroke="none"><path fill="#1e1e1e" d="M 1.92,0.08 Q 1.92,0.08 1.65,4.14 1.38,8.20 1.06,11.07 0.73,13.94 0.20,17.22 -0.32,20.49 -0.74,23.51 -1.16,26.53 -1.53,28.94 -1.91,31.35 -1.82,33.94 -1.74,36.54 -1.74,36.79 -1.74,37.04 -1.82,37.28 -1.90,37.52 -2.05,37.73 -2.21,37.93 -2.42,38.07 -2.63,38.21 -2.87,38.28 -3.12,38.35 -3.37,38.33 -3.62,38.32 -3.86,38.22 -4.09,38.13 -4.29,37.97 -4.48,37.80 -4.61,37.58 -4.74,37.37 -4.79,37.12 -4.85,36.87 -4.82,36.62 -4.79,36.37 -4.69,36.14 -4.58,35.91 -4.40,35.72 -4.23,35.54 -4.01,35.42 -3.78,35.30 -3.53,35.26 -3.28,35.22 -3.03,35.26 -2.78,35.31 -2.56,35.42 -2.33,35.54 -2.16,35.73 -1.99,35.91 -1.88,36.14 -1.77,36.37 -1.75,36.62 -1.72,36.88 -1.78,37.12 -1.83,37.37 -1.96,37.59 -2.09,37.80 -2.29,37.97 -2.48,38.13 -2.71,38.23 -2.95,38.32 -3.20,38.33 -3.46,38.35 -3.70,38.28 -3.94,38.21 -4.15,38.07 -4.36,37.92 -4.52,37.72 -4.67,37.52 -4.75,37.28 -4.83,37.04 -4.83,37.04 -4.83,37.04 -4.79,33.99 -4.76,30.93 -4.43,28.54 -4.11,26.15 -3.75,23.10 -3.39,20.04 -2.95,16.84 -2.52,13.64 -2.32,10.84 -2.12,8.04 -2.02,3.97 -1.92,-0.08 -1.88,-0.31 -1.84,-0.54 -1.75,-0.75 -1.66,-0.97 -1.52,-1.15 -1.38,-1.33 -1.19,-1.48 -1.01,-1.63 -0.80,-1.72 -0.59,-1.82 -0.37,-1.87 -0.14,-1.91 0.08,-1.90 0.31,-1.89 0.54,-1.83 0.76,-1.76 0.96,-1.64 1.16,-1.53 1.32,-1.37 1.49,-1.20 1.61,-1.01 1.74,-0.81 1.81,-0.59 1.88,-0.37 1.90,-0.14 1.92,0.08 1.92,0.08 L 1.92,0.08 Z"/></g><g transform="translate(603.0034519442975 168.69108699045785) rotate(0 14.776903358903837 -3.85484995748439)" stroke="none"><path fill="#1e1e1e" d="M -0.47,-1.79 Q -0.47,-1.79 2.31,-2.45 5.10,-3.12 7.23,-3.58 9.37,-4.03 12.33,-4.58 15.29,-5.13 18.19,-5.71 21.09,-6.30 24.31,-7.55 27.52,-8.80 27.79,-8.85 28.06,-8.89 28.33,-8.85 28.60,-8.81 28.85,-8.68 29.09,-8.56 29.28,-8.36 29.47,-8.16 29.59,-7.91 29.71,-7.66 29.74,-7.39 29.78,-7.12 29.72,-6.85 29.66,-6.58 29.52,-6.34 29.38,-6.10 29.18,-5.92 28.97,-5.74 28.71,-5.64 28.46,-5.53 28.18,-5.52 27.91,-5.50 27.64,-5.57 27.38,-5.64 27.15,-5.79 26.92,-5.95 26.75,-6.16 26.58,-6.38 26.49,-6.64 26.40,-6.90 26.40,-7.18 26.40,-7.45 26.48,-7.71 26.57,-7.97 26.73,-8.19 26.89,-8.41 27.12,-8.57 27.35,-8.73 27.61,-8.80 27.88,-8.88 28.15,-8.87 28.43,-8.86 28.68,-8.76 28.94,-8.66 29.15,-8.48 29.36,-8.31 29.51,-8.07 29.65,-7.84 29.71,-7.57 29.77,-7.30 29.75,-7.03 29.72,-6.75 29.61,-6.50 29.49,-6.25 29.31,-6.05 29.12,-5.85 28.88,-5.72 28.64,-5.59 28.64,-5.59 28.64,-5.59 25.17,-4.51 21.70,-3.43 18.79,-2.79 15.88,-2.14 13.00,-1.53 10.11,-0.91 8.04,-0.37 5.98,0.17 3.22,0.98 0.47,1.79 0.25,1.82 0.03,1.85 -0.18,1.83 -0.40,1.80 -0.61,1.73 -0.83,1.65 -1.01,1.53 -1.20,1.41 -1.35,1.24 -1.50,1.08 -1.61,0.88 -1.72,0.68 -1.77,0.47 -1.83,0.25 -1.83,0.03 -1.84,-0.18 -1.79,-0.40 -1.74,-0.62 -1.64,-0.82 -1.54,-1.02 -1.40,-1.19 -1.25,-1.36 -1.07,-1.49 -0.89,-1.62 -0.68,-1.70 -0.47,-1.79 -0.47,-1.79 L -0.47,-1.79 Z"/></g><g transform="translate(629.3449051756545 147.48943370241335) rotate(0 -0.6424964710337235 19.274228309302288)" stroke="none"><path fill="#1e1e1e" d="M 1.82,0.26 Q 1.82,0.26 1.38,2.83 0.94,5.41 0.74,8.46 0.54,11.51 0.43,14.85 0.33,18.18 0.27,20.53 0.21,22.88 0.18,25.53 0.15,28.19 0.13,30.61 0.11,33.03 0.47,35.20 0.84,37.36 0.82,37.62 0.81,37.88 0.72,38.13 0.62,38.37 0.45,38.57 0.29,38.77 0.06,38.90 -0.15,39.04 -0.40,39.10 -0.65,39.15 -0.91,39.13 -1.17,39.10 -1.41,38.99 -1.65,38.89 -1.84,38.71 -2.03,38.53 -2.15,38.30 -2.27,38.07 -2.32,37.81 -2.36,37.56 -2.32,37.30 -2.28,37.04 -2.16,36.81 -2.04,36.58 -1.85,36.40 -1.66,36.22 -1.43,36.11 -1.19,36.00 -0.93,35.97 -0.68,35.94 -0.42,36.00 -0.17,36.05 0.05,36.18 0.27,36.32 0.44,36.51 0.61,36.71 0.71,36.95 0.81,37.19 0.82,37.45 0.84,37.71 0.77,37.96 0.70,38.21 0.56,38.43 0.41,38.65 0.21,38.81 0.00,38.96 -0.24,39.05 -0.48,39.13 -0.74,39.14 -1.00,39.14 -1.25,39.06 -1.50,38.97 -1.71,38.82 -1.91,38.66 -2.06,38.45 -2.21,38.23 -2.28,37.98 -2.35,37.73 -2.35,37.73 -2.35,37.73 -2.51,35.38 -2.66,33.03 -2.67,30.60 -2.68,28.18 -2.69,25.51 -2.70,22.84 -2.70,20.48 -2.70,18.12 -2.67,14.74 -2.64,11.35 -2.53,8.14 -2.42,4.93 -2.12,2.33 -1.82,-0.26 -1.76,-0.47 -1.70,-0.68 -1.60,-0.88 -1.49,-1.07 -1.34,-1.24 -1.19,-1.40 -1.00,-1.52 -0.82,-1.65 -0.61,-1.72 -0.40,-1.79 -0.18,-1.82 0.03,-1.84 0.25,-1.81 0.47,-1.78 0.68,-1.69 0.89,-1.61 1.07,-1.48 1.25,-1.35 1.39,-1.18 1.53,-1.01 1.63,-0.81 1.73,-0.61 1.78,-0.40 1.83,-0.18 1.82,0.03 1.82,0.26 1.82,0.26 L 1.82,0.26 Z"/></g><g transform="translate(635.7696121485558 183.46799034936168) rotate(0 7.70969991496878 6.103480215504135)" stroke="none"><path fill="#1e1e1e" d="M -0.60,-2.00 Q -0.60,-2.00 1.26,-2.51 3.12,-3.01 5.18,-3.24 7.24,-3.48 8.64,-3.64 10.04,-3.81 11.41,-3.91 12.77,-4.01 13.97,-3.77 15.16,-3.53 16.07,-2.07 16.98,-0.61 16.43,1.07 15.88,2.76 14.03,4.50 12.18,6.24 10.02,7.68 7.87,9.11 6.28,10.23 4.70,11.35 3.50,11.03 2.29,10.71 3.56,10.83 4.83,10.94 6.00,10.95 7.18,10.96 8.47,10.81 9.76,10.65 12.86,11.13 15.96,11.61 16.30,11.83 16.65,12.05 16.90,12.38 17.15,12.70 17.29,13.08 17.42,13.47 17.43,13.88 17.44,14.29 17.31,14.68 17.19,15.07 16.94,15.40 16.70,15.73 16.37,15.96 16.03,16.19 15.64,16.31 15.25,16.43 14.84,16.41 14.43,16.39 14.05,16.25 13.66,16.10 13.35,15.84 13.03,15.58 12.82,15.23 12.60,14.89 12.51,14.49 12.41,14.09 12.45,13.68 12.49,13.28 12.65,12.90 12.82,12.53 13.10,12.23 13.37,11.93 13.73,11.73 14.09,11.53 14.49,11.46 14.90,11.39 15.30,11.45 15.71,11.51 16.07,11.69 16.43,11.88 16.72,12.17 17.01,12.47 17.18,12.83 17.36,13.20 17.41,13.61 17.46,14.02 17.38,14.42 17.30,14.82 17.09,15.17 16.89,15.52 16.58,15.79 16.27,16.06 15.89,16.22 15.52,16.38 15.11,16.41 14.70,16.43 14.30,16.33 13.91,16.23 13.91,16.23 13.91,16.23 12.11,15.88 10.31,15.53 8.67,15.71 7.02,15.89 5.64,15.81 4.26,15.74 2.52,15.19 0.79,14.63 0.60,12.44 0.41,10.24 1.45,9.30 2.49,8.36 4.05,7.17 5.60,5.98 7.35,4.60 9.10,3.21 10.99,1.74 12.88,0.28 11.61,0.26 10.34,0.25 9.03,0.28 7.71,0.32 5.98,0.56 4.26,0.79 2.43,1.40 0.60,2.00 0.35,2.05 0.10,2.09 -0.14,2.07 -0.39,2.05 -0.64,1.97 -0.88,1.90 -1.09,1.76 -1.31,1.63 -1.48,1.45 -1.66,1.27 -1.79,1.05 -1.92,0.83 -1.99,0.59 -2.06,0.35 -2.07,0.10 -2.09,-0.14 -2.04,-0.39 -1.99,-0.64 -1.88,-0.87 -1.78,-1.10 -1.62,-1.30 -1.46,-1.49 -1.26,-1.65 -1.06,-1.80 -0.83,-1.90 -0.60,-2.00 -0.60,-2.00 L -0.60,-2.00 Z"/></g><g transform="translate(669.1782258676087 166.7636620117156) rotate(0 17.989299801593802 -0.9637124893710904)" stroke="none"><path fill="#1e1e1e" d="M -0.23,-1.90 Q -0.23,-1.90 2.72,-2.19 5.69,-2.48 9.23,-2.58 12.78,-2.68 16.45,-2.89 20.13,-3.10 23.39,-3.17 26.65,-3.25 29.14,-3.27 31.64,-3.29 33.40,-3.41 35.17,-3.53 35.43,-3.49 35.69,-3.45 35.92,-3.34 36.16,-3.22 36.34,-3.03 36.52,-2.84 36.64,-2.60 36.75,-2.37 36.78,-2.11 36.81,-1.85 36.76,-1.59 36.71,-1.33 36.58,-1.11 36.45,-0.88 36.25,-0.71 36.05,-0.53 35.81,-0.43 35.57,-0.33 35.31,-0.31 35.04,-0.30 34.79,-0.36 34.54,-0.43 34.32,-0.57 34.10,-0.72 33.94,-0.92 33.77,-1.13 33.69,-1.38 33.60,-1.62 33.60,-1.89 33.59,-2.15 33.67,-2.40 33.75,-2.65 33.91,-2.86 34.06,-3.07 34.28,-3.22 34.49,-3.37 34.74,-3.44 34.99,-3.52 35.26,-3.51 35.52,-3.50 35.76,-3.41 36.01,-3.31 36.21,-3.15 36.41,-2.98 36.55,-2.76 36.69,-2.53 36.75,-2.28 36.81,-2.02 36.79,-1.76 36.76,-1.50 36.66,-1.26 36.55,-1.02 36.37,-0.83 36.20,-0.63 35.97,-0.51 35.74,-0.38 35.48,-0.34 35.22,-0.29 35.22,-0.29 35.22,-0.29 33.45,-0.35 31.69,-0.42 29.22,-0.35 26.75,-0.28 23.54,-0.14 20.34,-0.01 16.63,0.28 12.92,0.58 9.52,0.79 6.12,1.00 3.18,1.45 0.23,1.90 0.00,1.90 -0.22,1.90 -0.44,1.85 -0.67,1.79 -0.87,1.69 -1.08,1.58 -1.25,1.43 -1.43,1.27 -1.56,1.08 -1.69,0.89 -1.77,0.68 -1.86,0.46 -1.89,0.23 -1.91,0.00 -1.89,-0.22 -1.86,-0.45 -1.78,-0.66 -1.70,-0.88 -1.57,-1.07 -1.44,-1.26 -1.26,-1.42 -1.09,-1.57 -0.89,-1.68 -0.68,-1.79 -0.46,-1.84 -0.23,-1.90 -0.23,-1.90 L -0.23,-1.90 Z"/></g><g transform="translate(750.129946106063 145.56200872367117) rotate(0 -10.279556930385752 19.595455066699458)" stroke="none"><path fill="#1e1e1e" d="M 0.37,1.60 Q 0.37,1.60 -2.01,2.10 -4.39,2.60 -6.64,4.34 -8.89,6.08 -10.80,8.09 -12.71,10.09 -15.17,13.48 -17.63,16.87 -19.39,20.46 -21.14,24.04 -21.87,27.11 -22.59,30.18 -22.19,32.20 -21.78,34.22 -20.97,35.22 -20.16,36.22 -18.25,36.77 -16.34,37.32 -13.55,37.44 -10.77,37.56 -7.79,37.09 -4.82,36.61 -2.78,36.23 -0.73,35.84 1.33,35.49 3.41,35.14 3.67,35.15 3.92,35.16 4.16,35.26 4.40,35.35 4.60,35.52 4.80,35.68 4.93,35.90 5.07,36.12 5.12,36.37 5.18,36.62 5.16,36.88 5.13,37.13 5.02,37.37 4.92,37.60 4.74,37.79 4.57,37.98 4.34,38.10 4.11,38.23 3.86,38.27 3.61,38.31 3.35,38.27 3.10,38.23 2.87,38.12 2.64,38.00 2.46,37.81 2.28,37.63 2.17,37.39 2.06,37.16 2.03,36.90 2.00,36.65 2.06,36.40 2.11,36.15 2.24,35.92 2.37,35.70 2.57,35.53 2.76,35.37 3.00,35.27 3.24,35.17 3.50,35.15 3.75,35.14 4.00,35.21 4.25,35.27 4.46,35.41 4.68,35.56 4.84,35.76 4.99,35.96 5.08,36.21 5.16,36.45 5.16,36.71 5.17,36.97 5.09,37.21 5.01,37.46 4.85,37.66 4.70,37.87 4.49,38.01 4.27,38.16 4.03,38.23 3.78,38.30 3.78,38.30 3.78,38.30 1.78,38.43 -0.21,38.56 -2.30,38.97 -4.38,39.37 -7.63,39.89 -10.89,40.41 -14.07,40.26 -17.25,40.10 -19.81,39.14 -22.37,38.17 -23.39,36.48 -24.40,34.79 -24.82,32.21 -25.25,29.64 -24.44,26.24 -23.63,22.85 -21.77,19.04 -19.92,15.24 -17.37,11.67 -14.81,8.11 -12.76,5.91 -10.70,3.71 -7.95,1.66 -5.20,-0.38 -2.78,-0.99 -0.37,-1.60 -0.17,-1.62 0.02,-1.65 0.22,-1.62 0.41,-1.59 0.60,-1.52 0.78,-1.44 0.95,-1.33 1.11,-1.21 1.24,-1.06 1.37,-0.91 1.46,-0.73 1.55,-0.56 1.59,-0.36 1.64,-0.17 1.63,0.02 1.63,0.22 1.58,0.41 1.53,0.60 1.43,0.78 1.34,0.95 1.20,1.10 1.07,1.25 0.91,1.36 0.74,1.47 0.55,1.54 0.37,1.60 0.37,1.60 L 0.37,1.60 Z"/></g><g transform="translate(766.1917994507949 139.77975526556423) rotate(0 -0.3212267573971985 21.844117541898726)" stroke="none"><path fill="#1e1e1e" d="M 1.89,0.15 Q 1.89,0.15 1.63,2.36 1.36,4.57 1.23,8.05 1.09,11.52 1.02,14.30 0.94,17.09 0.90,20.67 0.85,24.25 0.82,27.62 0.80,30.99 0.78,33.72 0.76,36.44 0.83,38.15 0.90,39.87 0.98,41.43 1.06,42.99 1.01,43.27 0.97,43.54 0.84,43.78 0.71,44.03 0.51,44.22 0.31,44.40 0.06,44.52 -0.18,44.64 -0.46,44.67 -0.73,44.70 -1.00,44.64 -1.27,44.58 -1.50,44.43 -1.74,44.29 -1.92,44.08 -2.10,43.87 -2.20,43.62 -2.30,43.36 -2.32,43.08 -2.33,42.81 -2.26,42.54 -2.18,42.28 -2.03,42.05 -1.87,41.82 -1.65,41.65 -1.43,41.49 -1.17,41.40 -0.91,41.31 -0.64,41.31 -0.36,41.31 -0.10,41.40 0.15,41.49 0.37,41.66 0.59,41.82 0.75,42.05 0.90,42.28 0.97,42.54 1.05,42.81 1.03,43.09 1.02,43.36 0.91,43.62 0.81,43.87 0.63,44.08 0.46,44.29 0.22,44.44 -0.01,44.58 -0.28,44.64 -0.55,44.70 -0.82,44.67 -1.09,44.64 -1.34,44.52 -1.59,44.40 -1.79,44.21 -1.99,44.02 -2.12,43.78 -2.25,43.54 -2.30,43.26 -2.34,42.99 -2.34,42.99 -2.34,42.99 -2.26,41.43 -2.18,39.87 -2.11,38.15 -2.03,36.44 -2.05,33.71 -2.06,30.99 -2.08,27.61 -2.10,24.24 -2.11,20.64 -2.13,17.05 -2.14,14.25 -2.15,11.45 -2.12,7.87 -2.10,4.28 -2.00,2.06 -1.89,-0.15 -1.84,-0.38 -1.80,-0.60 -1.70,-0.81 -1.60,-1.02 -1.45,-1.19 -1.31,-1.37 -1.12,-1.51 -0.94,-1.64 -0.73,-1.73 -0.52,-1.82 -0.29,-1.86 -0.07,-1.89 0.15,-1.88 0.38,-1.86 0.60,-1.78 0.81,-1.71 1.01,-1.59 1.20,-1.46 1.36,-1.30 1.52,-1.13 1.63,-0.93 1.75,-0.74 1.81,-0.52 1.87,-0.29 1.88,-0.07 1.89,0.15 1.89,0.15 L 1.89,0.15 Z"/></g><g transform="translate(765.5493459360005 164.19376204005937) rotate(0 10.60082664402222 -2.5698999716562696)" stroke="none"><path fill="#1e1e1e" d="M -0.31,-2.01 Q -0.31,-2.01 2.10,-2.29 4.52,-2.56 6.03,-2.93 7.54,-3.30 9.76,-3.55 11.97,-3.81 14.13,-4.25 16.28,-4.69 17.95,-5.56 19.63,-6.43 19.92,-6.50 20.20,-6.58 20.49,-6.56 20.79,-6.54 21.06,-6.43 21.33,-6.31 21.55,-6.12 21.78,-5.93 21.92,-5.67 22.07,-5.42 22.13,-5.13 22.19,-4.84 22.16,-4.55 22.12,-4.26 22.00,-3.99 21.87,-3.73 21.66,-3.52 21.46,-3.31 21.20,-3.17 20.94,-3.04 20.65,-2.99 20.35,-2.95 20.06,-3.00 19.77,-3.05 19.52,-3.19 19.26,-3.33 19.06,-3.55 18.86,-3.76 18.74,-4.03 18.62,-4.30 18.59,-4.59 18.56,-4.89 18.63,-5.17 18.69,-5.46 18.85,-5.71 19.00,-5.96 19.23,-6.15 19.46,-6.34 19.73,-6.44 20.01,-6.55 20.30,-6.56 20.59,-6.57 20.88,-6.49 21.16,-6.41 21.40,-6.24 21.64,-6.07 21.82,-5.84 21.99,-5.60 22.08,-5.32 22.17,-5.04 22.17,-4.75 22.17,-4.45 22.07,-4.17 21.97,-3.90 21.79,-3.66 21.61,-3.43 21.36,-3.27 21.12,-3.11 21.12,-3.11 21.12,-3.11 19.07,-2.30 17.03,-1.50 14.77,-0.92 12.51,-0.34 10.43,0.05 8.35,0.45 6.72,0.77 5.08,1.08 2.69,1.55 0.31,2.01 0.06,2.02 -0.18,2.03 -0.42,1.98 -0.66,1.93 -0.88,1.82 -1.10,1.71 -1.29,1.55 -1.48,1.40 -1.63,1.20 -1.77,1.00 -1.87,0.77 -1.96,0.55 -2.00,0.30 -2.04,0.06 -2.01,-0.18 -1.99,-0.42 -1.91,-0.65 -1.83,-0.89 -1.70,-1.09 -1.57,-1.30 -1.39,-1.47 -1.21,-1.64 -0.99,-1.76 -0.78,-1.88 -0.54,-1.95 -0.31,-2.01 -0.31,-2.01 L -0.31,-2.01 Z"/></g><g transform="translate(785.4660062819776 144.277058737843) rotate(0 -1.6061767432253191 20.237940798673407)" stroke="none"><path fill="#1e1e1e" d="M 1.86,0 Q 1.86,0 1.78,2.21 1.71,4.43 1.68,6.48 1.64,8.53 1.59,13.09 1.55,17.66 1.14,20.80 0.73,23.94 0.37,26.18 0.00,28.42 -0.53,30.87 -1.07,33.33 -1.07,36.51 -1.06,39.69 -1.08,39.95 -1.10,40.20 -1.20,40.43 -1.29,40.67 -1.46,40.86 -1.63,41.05 -1.85,41.17 -2.07,41.30 -2.32,41.35 -2.57,41.40 -2.82,41.37 -3.07,41.34 -3.30,41.23 -3.53,41.12 -3.71,40.94 -3.89,40.76 -4.00,40.53 -4.12,40.31 -4.15,40.06 -4.19,39.80 -4.14,39.56 -4.10,39.31 -3.98,39.08 -3.85,38.86 -3.67,38.69 -3.48,38.52 -3.25,38.42 -3.01,38.32 -2.76,38.29 -2.51,38.27 -2.26,38.33 -2.02,38.39 -1.80,38.52 -1.59,38.66 -1.42,38.85 -1.26,39.05 -1.17,39.29 -1.09,39.52 -1.08,39.78 -1.07,40.03 -1.14,40.27 -1.21,40.52 -1.36,40.73 -1.50,40.93 -1.71,41.08 -1.91,41.23 -2.16,41.31 -2.40,41.39 -2.65,41.38 -2.90,41.38 -3.14,41.29 -3.38,41.21 -3.58,41.05 -3.78,40.89 -3.92,40.68 -4.06,40.47 -4.12,40.22 -4.18,39.97 -4.18,39.97 -4.18,39.97 -4.00,36.36 -3.82,32.75 -3.33,30.36 -2.84,27.98 -2.53,25.78 -2.21,23.58 -1.88,20.62 -1.55,17.66 -1.59,13.09 -1.64,8.53 -1.68,6.48 -1.71,4.43 -1.78,2.21 -1.86,0 -1.83,-0.22 -1.80,-0.44 -1.73,-0.65 -1.65,-0.86 -1.52,-1.05 -1.39,-1.23 -1.22,-1.38 -1.05,-1.53 -0.85,-1.63 -0.66,-1.74 -0.44,-1.79 -0.22,-1.85 0.00,-1.85 0.22,-1.85 0.44,-1.79 0.66,-1.74 0.86,-1.63 1.05,-1.53 1.22,-1.38 1.39,-1.23 1.52,-1.05 1.65,-0.86 1.73,-0.65 1.80,-0.44 1.83,-0.22 1.86,0.00 1.86,0.00 L 1.86,0 Z"/></g><g transform="translate(793.1757061969463 185.3953938499842) rotate(0 4.497346428518057 6.42474992914066)" stroke="none"><path fill="#1e1e1e" d="M -0.85,-2.34 Q -0.85,-2.34 1.23,-2.93 3.31,-3.53 4.64,-3.92 5.96,-4.31 7.02,-4.43 8.09,-4.55 8.38,-4.56 8.68,-4.58 8.98,-4.53 9.27,-4.48 9.54,-4.36 9.82,-4.24 10.05,-4.05 10.29,-3.87 10.47,-3.64 10.66,-3.40 10.78,-3.13 10.91,-2.86 10.96,-2.57 11.02,-2.27 11.00,-1.98 10.98,-1.68 10.89,-1.39 10.81,-1.11 10.65,-0.85 10.50,-0.59 10.29,-0.38 10.08,-0.17 9.83,-0.01 9.57,0.13 9.29,0.22 9.00,0.31 8.23,1.25 7.45,2.20 6.77,1.22 6.09,0.25 8.85,2.30 11.61,4.36 12.72,6.35 13.84,8.34 13.30,10.03 12.75,11.73 11.74,12.88 10.74,14.04 8.92,14.98 7.11,15.93 4.93,16.41 2.75,16.89 0.86,17.09 -1.02,17.30 -2.64,17.48 -4.25,17.67 -4.63,17.64 -5.00,17.61 -5.35,17.46 -5.69,17.31 -5.97,17.06 -6.25,16.81 -6.43,16.48 -6.62,16.16 -6.69,15.79 -6.76,15.42 -6.71,15.05 -6.66,14.68 -6.49,14.34 -6.32,14.00 -6.06,13.74 -5.79,13.47 -5.46,13.31 -5.12,13.14 -4.75,13.09 -4.38,13.04 -4.01,13.11 -3.64,13.18 -3.31,13.37 -2.98,13.55 -2.73,13.83 -2.48,14.11 -2.34,14.45 -2.19,14.80 -2.16,15.17 -2.13,15.55 -2.22,15.91 -2.31,16.28 -2.51,16.59 -2.71,16.91 -3.01,17.14 -3.30,17.38 -3.65,17.51 -4.00,17.64 -4.38,17.65 -4.75,17.66 -5.11,17.55 -5.47,17.44 -5.78,17.22 -6.08,17.00 -6.30,16.69 -6.52,16.39 -6.63,16.03 -6.74,15.67 -6.73,15.29 -6.72,14.92 -6.59,14.57 -6.46,14.21 -6.22,13.92 -5.99,13.63 -5.67,13.43 -5.35,13.23 -4.99,13.14 -4.63,13.05 -4.63,13.05 -4.63,13.05 -3.09,12.98 -1.55,12.91 0.02,12.69 1.61,12.47 3.24,11.96 4.88,11.45 5.98,10.93 7.07,10.41 7.95,9.40 8.83,8.38 6.30,6.90 3.77,5.41 2.72,4.55 1.68,3.70 1.52,2.50 1.36,1.31 2.11,0.15 2.86,-0.99 4.39,-2.02 5.93,-3.04 7.01,-3.79 8.09,-4.55 8.38,-4.56 8.68,-4.58 8.98,-4.53 9.27,-4.48 9.54,-4.36 9.82,-4.24 10.05,-4.05 10.29,-3.87 10.47,-3.64 10.66,-3.40 10.78,-3.13 10.91,-2.86 10.96,-2.57 11.02,-2.27 11.00,-1.98 10.98,-1.68 10.90,-1.39 10.81,-1.11 10.65,-0.85 10.50,-0.59 10.29,-0.38 10.08,-0.17 9.83,-0.01 9.57,0.13 9.29,0.22 9.00,0.31 8.04,0.20 7.09,0.10 5.95,0.34 4.81,0.57 2.83,1.46 0.85,2.34 0.55,2.41 0.26,2.47 -0.03,2.47 -0.33,2.47 -0.62,2.39 -0.91,2.31 -1.18,2.17 -1.44,2.03 -1.66,1.82 -1.88,1.62 -2.05,1.37 -2.22,1.12 -2.32,0.84 -2.42,0.56 -2.46,0.26 -2.49,-0.03 -2.45,-0.33 -2.41,-0.62 -2.30,-0.90 -2.19,-1.18 -2.01,-1.43 -1.84,-1.67 -1.61,-1.87 -1.38,-2.07 -1.11,-2.20 -0.85,-2.34 -0.85,-2.34 L -0.85,-2.34 Z"/></g><g transform="translate(207.23945769658377 77.45976686537853) rotate(0 -0.6424749929140603 31.481231696549884)" stroke="none"><path fill="#1e1e1e" d="M 1.81,0 Q 1.81,0 1.75,4.24 1.68,8.49 1.63,13.44 1.58,18.38 1.36,24.02 1.13,29.66 0.84,35.01 0.55,40.36 0.42,43.72 0.29,47.09 0.23,50.36 0.17,53.63 0.32,55.89 0.47,58.15 0.67,60.09 0.87,62.03 0.85,62.28 0.82,62.53 0.71,62.76 0.60,62.99 0.43,63.17 0.25,63.36 0.03,63.48 -0.18,63.59 -0.44,63.63 -0.69,63.67 -0.94,63.63 -1.19,63.59 -1.41,63.47 -1.63,63.35 -1.81,63.17 -1.98,62.98 -2.09,62.75 -2.19,62.52 -2.22,62.27 -2.25,62.02 -2.19,61.77 -2.14,61.52 -2.01,61.30 -1.87,61.09 -1.68,60.92 -1.49,60.76 -1.25,60.67 -1.01,60.57 -0.76,60.56 -0.51,60.55 -0.26,60.62 -0.02,60.69 0.18,60.83 0.39,60.97 0.54,61.17 0.70,61.38 0.78,61.62 0.86,61.86 0.86,62.11 0.86,62.36 0.77,62.60 0.69,62.84 0.54,63.05 0.38,63.25 0.17,63.39 -0.03,63.53 -0.27,63.60 -0.52,63.67 -0.77,63.65 -1.02,63.64 -1.26,63.54 -1.49,63.45 -1.69,63.28 -1.88,63.12 -2.01,62.90 -2.14,62.68 -2.19,62.43 -2.25,62.19 -2.25,62.19 -2.25,62.19 -2.25,60.26 -2.24,58.34 -2.42,55.96 -2.60,53.59 -2.56,50.29 -2.53,47.00 -2.44,43.60 -2.34,40.21 -2.11,34.89 -1.87,29.56 -1.72,23.97 -1.58,18.38 -1.63,13.44 -1.68,8.49 -1.75,4.24 -1.81,0 -1.79,-0.21 -1.76,-0.43 -1.68,-0.64 -1.60,-0.84 -1.48,-1.02 -1.36,-1.20 -1.19,-1.35 -1.03,-1.49 -0.83,-1.59 -0.64,-1.69 -0.43,-1.75 -0.21,-1.80 0.00,-1.80 0.21,-1.80 0.43,-1.75 0.64,-1.69 0.83,-1.59 1.03,-1.49 1.19,-1.35 1.36,-1.20 1.48,-1.02 1.60,-0.84 1.68,-0.63 1.76,-0.43 1.79,-0.21 1.81,0.00 1.81,0.00 L 1.81,0 Z"/></g><g transform="translate(190.53515083705736 26.70432833764596) rotate(0 -1.2849714639477554 14.134428365989805)" stroke="none"><path fill="#1e1e1e" d="M -1.50,0.86 Q -1.50,0.86 -2.28,-0.38 -3.06,-1.62 -5.35,0.36 -7.63,2.34 -9.23,4.98 -10.83,7.61 -11.91,9.82 -13.00,12.03 -13.81,15.09 -14.63,18.14 -14.99,21.03 -15.36,23.93 -14.84,25.84 -14.32,27.75 -13.11,28.73 -11.91,29.72 -10.81,30.04 -9.71,30.36 -7.83,30.22 -5.95,30.08 -2.77,29.17 0.41,28.26 4.39,26.95 8.38,25.65 10.07,25.03 11.76,24.41 12.01,24.37 12.26,24.33 12.51,24.37 12.76,24.41 12.98,24.53 13.20,24.65 13.38,24.84 13.55,25.02 13.65,25.25 13.76,25.48 13.79,25.73 13.81,25.98 13.76,26.23 13.70,26.47 13.57,26.69 13.44,26.91 13.25,27.07 13.06,27.23 12.82,27.33 12.59,27.42 12.33,27.43 12.08,27.45 11.84,27.38 11.59,27.31 11.39,27.17 11.18,27.02 11.02,26.82 10.87,26.62 10.79,26.38 10.71,26.14 10.71,25.89 10.71,25.64 10.79,25.40 10.88,25.16 11.03,24.96 11.18,24.76 11.39,24.62 11.60,24.47 11.85,24.41 12.09,24.34 12.34,24.35 12.59,24.37 12.83,24.46 13.06,24.56 13.25,24.72 13.45,24.89 13.58,25.10 13.71,25.32 13.76,25.57 13.81,25.81 13.79,26.06 13.76,26.32 13.65,26.54 13.54,26.77 13.37,26.96 13.20,27.14 12.97,27.26 12.75,27.37 12.75,27.37 12.75,27.37 11.03,27.90 9.31,28.42 5.28,29.79 1.26,31.17 -2.24,32.22 -5.75,33.26 -8.31,33.39 -10.87,33.52 -12.41,32.73 -13.94,31.93 -15.46,30.31 -16.97,28.68 -17.63,26.17 -18.29,23.67 -17.95,20.52 -17.62,17.37 -16.78,14.02 -15.95,10.68 -14.90,8.27 -13.84,5.86 -12.15,2.83 -10.46,-0.18 -8.45,-2.39 -6.45,-4.59 -4.48,-5.01 -2.51,-5.43 -1.19,-4.49 0.11,-3.54 0.81,-2.20 1.50,-0.86 1.59,-0.66 1.67,-0.47 1.70,-0.26 1.73,-0.06 1.71,0.14 1.70,0.35 1.63,0.55 1.56,0.75 1.45,0.92 1.34,1.10 1.18,1.24 1.03,1.39 0.85,1.49 0.67,1.60 0.47,1.65 0.27,1.71 0.06,1.72 -0.14,1.73 -0.35,1.68 -0.55,1.64 -0.74,1.55 -0.93,1.46 -1.09,1.33 -1.25,1.19 -1.38,1.03 -1.50,0.86 -1.50,0.86 L -1.50,0.86 Z"/></g><g transform="translate(215.59161112634695 17.709699914968724) rotate(0 2.248651736139408 16.704317598586215)" stroke="none"><path fill="#1e1e1e" d="M 1.84,-0.73 Q 1.84,-0.73 2.53,1.13 3.22,3.00 3.69,6.21 4.17,9.41 4.34,13.18 4.50,16.95 4.55,20.39 4.60,23.83 4.61,26.39 4.62,28.96 5.18,30.66 5.73,32.36 5.81,32.60 5.88,32.85 5.88,33.10 5.87,33.36 5.78,33.60 5.70,33.84 5.54,34.03 5.38,34.23 5.16,34.37 4.95,34.51 4.70,34.57 4.46,34.63 4.20,34.61 3.95,34.59 3.71,34.49 3.48,34.39 3.29,34.22 3.10,34.05 2.97,33.83 2.85,33.61 2.80,33.36 2.75,33.11 2.78,32.86 2.82,32.61 2.93,32.38 3.04,32.15 3.22,31.97 3.40,31.79 3.63,31.67 3.86,31.56 4.11,31.52 4.36,31.49 4.61,31.54 4.86,31.58 5.08,31.71 5.31,31.83 5.48,32.02 5.65,32.21 5.75,32.45 5.85,32.68 5.87,32.93 5.89,33.19 5.83,33.43 5.77,33.68 5.63,33.90 5.50,34.11 5.30,34.27 5.10,34.43 4.86,34.52 4.62,34.61 4.37,34.62 4.11,34.63 3.87,34.55 3.63,34.48 3.42,34.33 3.21,34.18 3.06,33.97 2.91,33.77 2.91,33.77 2.91,33.77 2.30,31.39 1.68,29.00 1.61,26.46 1.54,23.91 1.41,20.52 1.28,17.14 1.03,13.56 0.77,9.97 0.25,7.17 -0.26,4.38 -1.05,2.55 -1.84,0.73 -1.90,0.50 -1.96,0.27 -1.96,0.03 -1.97,-0.20 -1.91,-0.43 -1.86,-0.66 -1.75,-0.88 -1.65,-1.09 -1.49,-1.27 -1.34,-1.45 -1.14,-1.59 -0.95,-1.73 -0.73,-1.82 -0.50,-1.91 -0.27,-1.94 -0.03,-1.98 0.20,-1.95 0.43,-1.93 0.66,-1.85 0.88,-1.77 1.08,-1.63 1.28,-1.50 1.44,-1.33 1.61,-1.15 1.72,-0.94 1.84,-0.73 1.84,-0.73 L 1.84,-0.73 Z"/></g><g transform="translate(222.0163610554876 31.8441282809585) rotate(0 9.637103415591326 -2.248662475199211)" stroke="none"><path fill="#1e1e1e" d="M -0.32,-2.10 Q -0.32,-2.10 2.09,-2.36 4.51,-2.63 6.52,-2.76 8.53,-2.88 10.35,-3.27 12.16,-3.65 13.61,-4.21 15.06,-4.77 16.46,-5.42 17.87,-6.07 18.18,-6.14 18.50,-6.21 18.82,-6.18 19.14,-6.15 19.43,-6.01 19.72,-5.88 19.96,-5.66 20.19,-5.44 20.35,-5.16 20.50,-4.88 20.55,-4.56 20.61,-4.24 20.56,-3.93 20.51,-3.61 20.36,-3.32 20.21,-3.04 19.98,-2.82 19.75,-2.59 19.46,-2.46 19.17,-2.32 18.85,-2.28 18.53,-2.24 18.21,-2.31 17.90,-2.38 17.62,-2.54 17.35,-2.70 17.14,-2.95 16.93,-3.19 16.80,-3.49 16.68,-3.79 16.66,-4.11 16.64,-4.43 16.73,-4.74 16.81,-5.05 16.99,-5.32 17.17,-5.58 17.42,-5.78 17.68,-5.98 17.98,-6.08 18.28,-6.19 18.61,-6.19 18.93,-6.19 19.23,-6.09 19.54,-5.99 19.80,-5.80 20.05,-5.60 20.23,-5.34 20.42,-5.08 20.51,-4.77 20.59,-4.46 20.58,-4.14 20.56,-3.82 20.45,-3.52 20.33,-3.22 20.12,-2.97 19.92,-2.72 19.64,-2.56 19.37,-2.39 19.37,-2.39 19.37,-2.39 17.83,-1.84 16.30,-1.29 14.62,-0.74 12.95,-0.19 10.89,0.29 8.84,0.78 6.96,0.96 5.09,1.15 2.70,1.63 0.32,2.10 0.06,2.11 -0.18,2.12 -0.44,2.07 -0.69,2.01 -0.92,1.90 -1.15,1.79 -1.35,1.62 -1.55,1.46 -1.70,1.25 -1.85,1.05 -1.95,0.81 -2.05,0.57 -2.09,0.32 -2.13,0.06 -2.10,-0.18 -2.08,-0.44 -2.00,-0.68 -1.91,-0.93 -1.77,-1.14 -1.64,-1.36 -1.45,-1.53 -1.26,-1.71 -1.04,-1.84 -0.81,-1.96 -0.57,-2.03 -0.32,-2.10 -0.32,-2.10 L -0.32,-2.10 Z"/></g><g transform="translate(240.6481143718758 10) rotate(0 2.248651736139408 19.274217570242456)" stroke="none"><path fill="#1e1e1e" d="M 1.87,-0.43 Q 1.87,-0.43 2.34,1.98 2.82,4.40 3.19,7.54 3.57,10.68 3.71,14.45 3.85,18.22 3.89,21.66 3.94,25.10 3.95,27.30 3.96,29.50 4.15,31.48 4.35,33.46 5.02,35.47 5.70,37.47 5.77,37.71 5.85,37.95 5.84,38.21 5.83,38.46 5.75,38.69 5.66,38.93 5.50,39.13 5.34,39.32 5.13,39.46 4.92,39.59 4.67,39.66 4.43,39.72 4.18,39.70 3.93,39.67 3.70,39.57 3.47,39.48 3.28,39.31 3.09,39.14 2.97,38.92 2.84,38.70 2.80,38.45 2.75,38.20 2.78,37.96 2.82,37.71 2.93,37.48 3.04,37.25 3.22,37.08 3.40,36.90 3.62,36.79 3.85,36.68 4.10,36.64 4.35,36.61 4.60,36.66 4.84,36.70 5.06,36.83 5.28,36.95 5.45,37.14 5.62,37.33 5.72,37.56 5.82,37.79 5.84,38.04 5.86,38.29 5.79,38.54 5.73,38.78 5.60,38.99 5.46,39.20 5.27,39.36 5.07,39.52 4.83,39.61 4.60,39.69 4.34,39.70 4.09,39.71 3.85,39.63 3.61,39.56 3.41,39.41 3.20,39.26 3.06,39.06 2.91,38.85 2.91,38.85 2.91,38.85 2.19,36.30 1.48,33.74 1.28,31.64 1.08,29.54 1.02,27.36 0.97,25.17 0.86,21.77 0.75,18.37 0.54,14.75 0.32,11.13 -0.14,8.16 -0.60,5.19 -1.24,2.81 -1.87,0.43 -1.90,0.20 -1.92,-0.02 -1.89,-0.25 -1.86,-0.48 -1.77,-0.70 -1.69,-0.91 -1.55,-1.10 -1.42,-1.29 -1.24,-1.44 -1.06,-1.60 -0.86,-1.70 -0.65,-1.80 -0.42,-1.86 -0.20,-1.91 0.02,-1.91 0.26,-1.90 0.48,-1.84 0.70,-1.78 0.91,-1.67 1.11,-1.56 1.28,-1.41 1.45,-1.25 1.58,-1.06 1.71,-0.86 1.79,-0.65 1.87,-0.43 1.87,-0.43 L 1.87,-0.43 Z"/></g><g transform="translate(254.78252125974598 45.33608165403422) rotate(0 6.74597668653783 10.922053401419447)" stroke="none"><path fill="#1e1e1e" d="M -1.11,-2.23 Q -1.11,-2.23 1.16,-3.20 3.45,-4.18 4.87,-4.73 6.29,-5.28 7.70,-5.73 9.12,-6.17 10.66,-5.56 12.21,-4.94 12.66,-2.95 13.10,-0.96 12.35,0.46 11.59,1.88 11.17,3.20 10.75,4.52 11.62,3.62 12.49,2.73 14.07,3.01 15.65,3.30 17.03,3.88 18.41,4.46 19.28,5.23 20.16,5.99 20.66,7.96 21.16,9.93 19.83,12.36 18.51,14.78 16.12,17.12 13.73,19.46 11.73,20.96 9.73,22.46 7.10,23.85 4.47,25.25 0.68,26.26 -3.10,27.27 -3.43,27.29 -3.75,27.31 -4.06,27.23 -4.37,27.15 -4.64,26.97 -4.91,26.79 -5.11,26.54 -5.31,26.28 -5.41,25.98 -5.52,25.67 -5.53,25.35 -5.53,25.03 -5.43,24.72 -5.33,24.41 -5.14,24.15 -4.95,23.89 -4.68,23.71 -4.42,23.53 -4.11,23.44 -3.80,23.35 -3.47,23.36 -3.15,23.37 -2.85,23.49 -2.55,23.60 -2.30,23.81 -2.05,24.02 -1.88,24.29 -1.71,24.57 -1.64,24.88 -1.57,25.19 -1.60,25.52 -1.63,25.84 -1.76,26.13 -1.89,26.43 -2.11,26.66 -2.33,26.90 -2.61,27.06 -2.90,27.21 -3.21,27.27 -3.53,27.32 -3.85,27.27 -4.17,27.23 -4.46,27.08 -4.75,26.93 -4.97,26.70 -5.19,26.47 -5.33,26.17 -5.47,25.88 -5.51,25.56 -5.55,25.24 -5.48,24.93 -5.42,24.61 -5.26,24.33 -5.09,24.05 -4.85,23.84 -4.61,23.63 -4.31,23.51 -4.01,23.38 -4.01,23.38 -4.01,23.38 -0.64,22.73 2.72,22.07 4.96,20.71 7.19,19.36 8.83,17.86 10.46,16.36 12.28,14.26 14.09,12.15 14.41,10.51 14.73,8.87 13.39,8.71 12.05,8.55 10.51,8.43 8.97,8.30 7.72,7.55 6.46,6.80 5.84,5.11 5.21,3.43 5.51,2.35 5.81,1.27 6.80,-0.40 7.78,-2.09 8.86,-1.68 9.95,-1.28 8.88,-1.15 7.81,-1.03 6.61,-0.64 5.41,-0.25 3.26,0.99 1.11,2.23 0.83,2.33 0.55,2.44 0.25,2.47 -0.04,2.50 -0.34,2.45 -0.64,2.41 -0.92,2.30 -1.20,2.19 -1.45,2.01 -1.69,1.83 -1.89,1.60 -2.08,1.38 -2.22,1.11 -2.35,0.84 -2.42,0.54 -2.48,0.25 -2.48,-0.04 -2.47,-0.35 -2.39,-0.64 -2.32,-0.93 -2.17,-1.19 -2.03,-1.46 -1.82,-1.68 -1.62,-1.90 -1.37,-2.07 -1.11,-2.23 -1.11,-2.23 L -1.11,-2.23 Z"/></g><g transform="translate(397.41171194923254 205.95455066699498) rotate(0 0.321269713636525 24.092780017097965)" stroke="none"><path fill="#1e1e1e" d="M 1.81,-0.24 Q 1.81,-0.24 2.11,2.53 2.41,5.31 2.52,9.34 2.64,13.37 2.48,17.87 2.33,22.37 2.06,25.59 1.80,28.80 1.49,32.38 1.19,35.95 1.05,38.73 0.92,41.52 0.94,43.26 0.95,45.00 0.97,44.91 1.00,44.83 0.97,45.03 0.94,45.22 0.86,45.41 0.79,45.59 0.67,45.75 0.55,45.91 0.40,46.04 0.25,46.16 0.07,46.25 -0.10,46.34 -0.29,46.38 -0.49,46.42 -0.68,46.41 -0.88,46.41 -1.07,46.35 -1.26,46.30 -1.43,46.20 -1.61,46.11 -1.75,45.97 -1.90,45.84 -2.00,45.67 -2.11,45.50 -2.18,45.32 -2.24,45.13 -2.26,44.93 -2.28,44.73 -2.24,44.50 -2.19,44.27 -2.07,44.03 -1.95,43.80 -1.76,43.61 -1.56,43.43 -1.32,43.32 -1.08,43.20 -0.82,43.17 -0.55,43.14 -0.29,43.20 -0.04,43.25 0.18,43.39 0.41,43.53 0.58,43.73 0.76,43.93 0.86,44.18 0.96,44.42 0.97,44.69 0.99,44.95 0.92,45.21 0.85,45.47 0.70,45.69 0.55,45.91 0.34,46.07 0.13,46.23 -0.11,46.32 -0.36,46.40 -0.63,46.40 -0.89,46.41 -1.14,46.32 -1.40,46.24 -1.61,46.08 -1.82,45.92 -1.97,45.70 -2.12,45.48 -2.19,45.23 -2.27,44.97 -2.25,44.70 -2.24,44.44 -2.14,44.19 -2.05,43.94 -1.88,43.74 -1.70,43.54 -1.48,43.40 -1.25,43.26 -0.99,43.20 -0.73,43.14 -0.47,43.17 -0.20,43.20 0.03,43.31 0.27,43.42 0.46,43.60 0.66,43.78 0.78,44.02 0.91,44.25 0.95,44.51 1.00,44.77 1.00,44.80 1.00,44.83 0.97,45.03 0.94,45.22 0.86,45.41 0.79,45.59 0.67,45.75 0.55,45.91 0.40,46.04 0.25,46.16 0.07,46.25 -0.10,46.34 -0.29,46.38 -0.48,46.42 -0.68,46.41 -0.88,46.41 -1.07,46.35 -1.26,46.30 -1.43,46.20 -1.61,46.11 -1.75,45.97 -1.90,45.84 -2.00,45.67 -2.11,45.50 -2.18,45.32 -2.24,45.13 -2.26,44.93 -2.28,44.73 -2.18,44.82 -2.08,44.91 -1.97,43.15 -1.85,41.40 -1.74,38.56 -1.63,35.72 -1.37,32.16 -1.10,28.59 -0.90,25.44 -0.69,22.29 -0.61,17.89 -0.53,13.50 -0.73,9.63 -0.93,5.76 -1.37,3.00 -1.81,0.24 -1.81,0.02 -1.82,-0.19 -1.77,-0.41 -1.72,-0.62 -1.62,-0.82 -1.52,-1.02 -1.37,-1.19 -1.23,-1.35 -1.05,-1.48 -0.87,-1.61 -0.66,-1.69 -0.45,-1.77 -0.24,-1.80 -0.02,-1.83 0.19,-1.80 0.41,-1.78 0.62,-1.70 0.83,-1.63 1.01,-1.50 1.19,-1.38 1.34,-1.22 1.49,-1.05 1.60,-0.86 1.70,-0.66 1.76,-0.45 1.81,-0.24 1.81,-0.24 L 1.81,-0.24 Z"/></g><g transform="translate(372.9977481309767 259.9224071155371) rotate(0 -0.9637232284308936 18.952980073785454)" stroke="none"><path fill="#1e1e1e" d="M -0.52,1.56 Q -0.52,1.56 -2.11,1.04 -3.71,0.53 -6.24,2.30 -8.76,4.08 -10.59,6.93 -12.42,9.79 -13.77,13.51 -15.12,17.23 -15.72,19.89 -16.31,22.55 -16.23,25.49 -16.15,28.43 -13.50,31.48 -10.84,34.53 -8.20,35.81 -5.56,37.10 -3.49,37.29 -1.41,37.48 1.34,36.51 4.10,35.54 7.01,34.39 9.93,33.24 12.47,32.15 15.01,31.07 15.26,31.02 15.51,30.97 15.76,31.00 16.02,31.03 16.25,31.14 16.48,31.26 16.66,31.43 16.84,31.61 16.96,31.84 17.07,32.07 17.11,32.32 17.14,32.58 17.10,32.83 17.05,33.08 16.93,33.30 16.80,33.53 16.61,33.70 16.43,33.87 16.19,33.97 15.96,34.08 15.70,34.10 15.45,34.12 15.20,34.06 14.95,34.00 14.74,33.87 14.52,33.73 14.36,33.53 14.20,33.33 14.11,33.10 14.02,32.86 14.01,32.60 14.00,32.35 14.07,32.10 14.14,31.86 14.29,31.65 14.44,31.44 14.65,31.29 14.85,31.14 15.10,31.06 15.34,30.98 15.59,30.99 15.85,30.99 16.09,31.08 16.33,31.16 16.53,31.32 16.73,31.48 16.87,31.70 17.01,31.91 17.07,32.16 17.14,32.41 17.12,32.66 17.10,32.92 17.00,33.15 16.90,33.39 16.73,33.58 16.56,33.77 16.34,33.90 16.12,34.02 16.12,34.02 16.12,34.02 13.52,34.88 10.91,35.73 7.93,36.91 4.95,38.09 1.67,39.13 -1.59,40.17 -4.17,39.87 -6.74,39.58 -9.83,37.98 -12.91,36.38 -15.90,32.64 -18.88,28.90 -19.04,25.42 -19.20,21.95 -18.61,19.08 -18.02,16.20 -16.60,12.13 -15.17,8.06 -13.07,4.74 -10.97,1.42 -8.67,-0.42 -6.37,-2.27 -4.65,-2.51 -2.93,-2.74 -1.20,-2.15 0.52,-1.56 0.70,-1.48 0.88,-1.39 1.03,-1.27 1.19,-1.14 1.31,-0.98 1.42,-0.82 1.50,-0.64 1.58,-0.46 1.61,-0.26 1.65,-0.06 1.63,0.13 1.61,0.32 1.55,0.51 1.49,0.70 1.38,0.87 1.27,1.04 1.13,1.18 0.99,1.31 0.82,1.41 0.64,1.51 0.45,1.57 0.26,1.63 0.06,1.63 -0.13,1.64 -0.32,1.60 -0.52,1.56 -0.52,1.56 L -0.52,1.56 Z"/></g><g transform="translate(399.98161192088884 261.20731414512596) rotate(0 0.32126971363646817 17.346803330560107)" stroke="none"><path fill="#1e1e1e" d="M 1.96,0 Q 1.96,0 1.87,2.77 1.78,5.54 1.72,7.82 1.65,10.11 1.61,13.48 1.56,16.85 1.34,20.36 1.12,23.86 1.02,26.43 0.91,28.99 1.28,30.78 1.65,32.57 1.85,32.70 2.06,32.82 2.22,33.01 2.38,33.19 2.47,33.42 2.56,33.64 2.58,33.88 2.59,34.13 2.53,34.36 2.47,34.60 2.33,34.80 2.20,35.00 2.00,35.15 1.81,35.30 1.58,35.38 1.35,35.46 1.11,35.46 0.86,35.46 0.63,35.39 0.40,35.31 0.21,35.16 0.01,35.02 -0.12,34.82 -0.25,34.62 -0.32,34.38 -0.39,34.15 -0.38,33.90 -0.36,33.66 -0.28,33.43 -0.19,33.21 -0.03,33.02 0.12,32.83 0.32,32.71 0.53,32.58 0.77,32.53 1.01,32.47 1.25,32.50 1.49,32.52 1.71,32.62 1.93,32.72 2.11,32.89 2.29,33.06 2.40,33.27 2.52,33.49 2.56,33.73 2.60,33.97 2.56,34.21 2.53,34.45 2.41,34.66 2.30,34.88 2.13,35.05 1.95,35.21 1.73,35.32 1.51,35.42 1.27,35.45 1.03,35.48 0.79,35.43 0.55,35.38 0.55,35.38 0.55,35.38 -0.70,32.14 -1.97,28.90 -1.91,26.30 -1.86,23.70 -1.71,20.28 -1.56,16.85 -1.61,13.48 -1.65,10.11 -1.72,7.82 -1.78,5.54 -1.87,2.77 -1.96,0 -1.93,-0.23 -1.90,-0.46 -1.82,-0.69 -1.73,-0.91 -1.60,-1.10 -1.46,-1.30 -1.29,-1.45 -1.11,-1.61 -0.90,-1.72 -0.69,-1.83 -0.46,-1.89 -0.23,-1.94 0.00,-1.94 0.23,-1.94 0.46,-1.89 0.69,-1.83 0.90,-1.72 1.11,-1.61 1.29,-1.45 1.46,-1.30 1.60,-1.10 1.73,-0.91 1.82,-0.69 1.90,-0.46 1.93,-0.23 1.96,0.00 1.96,0.00 L 1.96,0 Z"/></g><g transform="translate(400.62415134816183 279.19661394671976) rotate(0 8.030926672365979 -2.569899971656241)" stroke="none"><path fill="#1e1e1e" d="M -0.52,-2.11 Q -0.52,-2.11 1.71,-2.55 3.95,-3.00 5.63,-3.42 7.31,-3.85 8.75,-4.25 10.19,-4.65 12.18,-5.67 14.17,-6.68 14.51,-6.78 14.86,-6.87 15.21,-6.85 15.57,-6.83 15.89,-6.70 16.22,-6.57 16.49,-6.34 16.76,-6.11 16.95,-5.80 17.13,-5.50 17.20,-5.15 17.28,-4.80 17.24,-4.45 17.20,-4.10 17.05,-3.78 16.90,-3.45 16.66,-3.20 16.41,-2.94 16.10,-2.78 15.78,-2.61 15.43,-2.55 15.08,-2.50 14.73,-2.55 14.38,-2.61 14.07,-2.78 13.76,-2.95 13.51,-3.21 13.27,-3.46 13.12,-3.79 12.97,-4.11 12.94,-4.46 12.90,-4.81 12.98,-5.16 13.05,-5.51 13.24,-5.81 13.42,-6.11 13.69,-6.34 13.96,-6.57 14.29,-6.70 14.62,-6.83 14.98,-6.85 15.33,-6.87 15.67,-6.77 16.01,-6.68 16.31,-6.48 16.60,-6.28 16.81,-5.99 17.03,-5.71 17.14,-5.38 17.25,-5.04 17.25,-4.68 17.25,-4.33 17.14,-3.99 17.02,-3.66 16.81,-3.38 16.59,-3.09 16.30,-2.90 16.00,-2.70 16.00,-2.70 16.00,-2.70 13.60,-1.69 11.20,-0.69 9.73,-0.37 8.27,-0.04 6.58,0.37 4.90,0.78 2.71,1.45 0.52,2.11 0.26,2.14 0.00,2.18 -0.25,2.15 -0.51,2.12 -0.76,2.02 -1.00,1.93 -1.22,1.78 -1.44,1.63 -1.61,1.44 -1.79,1.24 -1.91,1.01 -2.03,0.78 -2.10,0.52 -2.16,0.27 -2.16,0.00 -2.16,-0.25 -2.10,-0.51 -2.04,-0.76 -1.92,-1.00 -1.80,-1.23 -1.62,-1.43 -1.45,-1.62 -1.23,-1.77 -1.02,-1.92 -0.77,-2.02 -0.52,-2.11 -0.52,-2.11 L -0.52,-2.11 Z"/></g><g transform="translate(421.18326520893334 257.99496065867527) rotate(0 -0.6424535147944255 19.595455066699515)" stroke="none"><path fill="#1e1e1e" d="M 1.94,0 Q 1.94,0 1.86,2.40 1.77,4.80 1.71,6.93 1.65,9.06 1.42,12.22 1.18,15.39 0.89,18.76 0.59,22.13 0.45,25.19 0.32,28.25 0.31,30.11 0.30,31.97 0.34,33.67 0.37,35.38 0.69,36.79 1.01,38.21 1.01,38.50 1.01,38.79 0.91,39.07 0.82,39.34 0.64,39.57 0.47,39.80 0.23,39.96 -0.00,40.12 -0.28,40.20 -0.56,40.28 -0.85,40.26 -1.14,40.24 -1.41,40.13 -1.68,40.03 -1.90,39.84 -2.12,39.65 -2.27,39.40 -2.41,39.15 -2.47,38.87 -2.54,38.59 -2.50,38.30 -2.47,38.01 -2.35,37.75 -2.23,37.49 -2.03,37.28 -1.83,37.07 -1.57,36.93 -1.31,36.80 -1.03,36.75 -0.74,36.70 -0.46,36.75 -0.17,36.80 0.08,36.94 0.33,37.07 0.53,37.29 0.73,37.50 0.85,37.76 0.97,38.02 1.00,38.31 1.03,38.60 0.97,38.88 0.90,39.16 0.75,39.41 0.60,39.66 0.38,39.85 0.16,40.03 -0.10,40.14 -0.37,40.25 -0.66,40.26 -0.95,40.27 -1.23,40.20 -1.51,40.12 -1.75,39.95 -1.98,39.79 -2.16,39.56 -2.33,39.33 -2.42,39.05 -2.52,38.78 -2.52,38.78 -2.52,38.78 -2.70,37.06 -2.88,35.35 -2.81,33.62 -2.73,31.89 -2.64,30.02 -2.56,28.14 -2.47,25.02 -2.38,21.90 -2.15,18.55 -1.92,15.21 -1.78,12.13 -1.65,9.05 -1.71,6.93 -1.77,4.80 -1.86,2.40 -1.94,0 -1.91,-0.23 -1.89,-0.46 -1.80,-0.68 -1.72,-0.90 -1.59,-1.09 -1.45,-1.29 -1.28,-1.44 -1.10,-1.60 -0.89,-1.71 -0.69,-1.82 -0.46,-1.87 -0.23,-1.93 0.00,-1.93 0.23,-1.93 0.46,-1.87 0.69,-1.82 0.89,-1.71 1.10,-1.60 1.28,-1.44 1.45,-1.29 1.59,-1.09 1.72,-0.90 1.80,-0.68 1.89,-0.46 1.91,-0.23 1.94,0.00 1.94,0.00 L 1.94,0 Z"/></g><g transform="translate(430.17795806596956 292.6885673197955) rotate(0 11.564506916213873 5.139778465192876)" stroke="none"><path fill="#1e1e1e" d="M -0.64,-2.10 Q -0.64,-2.10 1.78,-2.73 4.22,-3.35 6.22,-3.81 8.23,-4.27 9.48,-4.57 10.73,-4.88 12.12,-4.71 13.52,-4.55 14.31,-3.52 15.10,-2.48 14.76,-0.70 14.41,1.07 13.35,2.81 12.29,4.54 11.50,5.71 10.71,6.88 9.61,8.35 8.52,9.83 10.74,9.26 12.95,8.69 15.05,8.24 17.15,7.79 20.35,8.27 23.55,8.75 23.83,8.96 24.10,9.17 24.29,9.45 24.49,9.73 24.58,10.06 24.67,10.39 24.65,10.73 24.64,11.07 24.51,11.39 24.39,11.71 24.17,11.97 23.94,12.23 23.65,12.41 23.36,12.59 23.03,12.66 22.69,12.74 22.35,12.70 22.01,12.67 21.70,12.52 21.39,12.38 21.14,12.15 20.89,11.91 20.73,11.61 20.57,11.31 20.51,10.97 20.45,10.63 20.51,10.30 20.56,9.96 20.72,9.65 20.88,9.35 21.13,9.12 21.38,8.88 21.69,8.73 22.00,8.59 22.34,8.55 22.68,8.51 23.01,8.59 23.35,8.66 23.64,8.83 23.93,9.01 24.16,9.27 24.38,9.53 24.51,9.85 24.63,10.16 24.65,10.51 24.67,10.85 24.58,11.18 24.49,11.51 24.30,11.79 24.11,12.07 23.84,12.28 23.57,12.49 23.24,12.60 22.92,12.71 22.58,12.71 22.23,12.71 21.91,12.61 21.59,12.50 21.59,12.50 21.59,12.50 19.86,12.08 18.13,11.67 16.29,12.22 14.45,12.77 12.45,13.67 10.45,14.56 8.48,14.94 6.52,15.31 5.36,14.49 4.21,13.66 3.94,12.31 3.68,10.97 4.29,9.19 4.89,7.41 5.92,5.78 6.95,4.15 7.68,3.22 8.41,2.30 9.92,0.69 11.43,-0.91 10.29,-0.79 9.15,-0.67 7.26,-0.13 5.38,0.40 3.01,1.25 0.64,2.10 0.38,2.15 0.12,2.19 -0.13,2.18 -0.40,2.16 -0.65,2.08 -0.91,2.00 -1.13,1.86 -1.36,1.72 -1.55,1.53 -1.73,1.35 -1.87,1.12 -2.01,0.89 -2.08,0.64 -2.16,0.38 -2.18,0.12 -2.19,-0.14 -2.14,-0.40 -2.09,-0.66 -1.98,-0.90 -1.87,-1.14 -1.71,-1.35 -1.55,-1.56 -1.34,-1.72 -1.13,-1.88 -0.88,-1.99 -0.64,-2.10 -0.64,-2.10 L -0.64,-2.10 Z"/></g><g transform="translate(395.4843514048493 310.67782416515) rotate(0 0 20.237930059613575)" stroke="none"><path fill="#1e1e1e" d="M 2.01,0 Q 2.01,0 1.91,2.95 1.82,5.91 1.75,9.75 1.68,13.59 1.63,18.36 1.58,23.14 1.54,25.90 1.51,28.67 1.53,30.59 1.55,32.50 1.60,34.24 1.65,35.98 1.67,37.33 1.69,38.68 1.66,38.89 1.64,39.09 1.57,39.28 1.49,39.47 1.38,39.64 1.26,39.81 1.11,39.94 0.96,40.08 0.78,40.17 0.60,40.27 0.40,40.32 0.20,40.36 -0.00,40.36 -0.20,40.36 -0.40,40.32 -0.60,40.27 -0.78,40.17 -0.96,40.08 -1.11,39.94 -1.26,39.81 -1.38,39.64 -1.49,39.47 -1.57,39.28 -1.64,39.09 -1.66,38.89 -1.69,38.68 -1.64,38.41 -1.60,38.14 -1.47,37.90 -1.34,37.66 -1.14,37.47 -0.94,37.28 -0.70,37.17 -0.45,37.05 -0.18,37.02 0.09,36.99 0.35,37.05 0.62,37.11 0.86,37.25 1.09,37.39 1.27,37.60 1.45,37.81 1.55,38.07 1.65,38.32 1.66,38.59 1.68,38.87 1.60,39.13 1.53,39.39 1.38,39.62 1.22,39.85 1.01,40.01 0.79,40.18 0.53,40.27 0.27,40.35 -0.00,40.35 -0.27,40.35 -0.53,40.27 -0.79,40.18 -1.01,40.01 -1.22,39.85 -1.38,39.62 -1.53,39.39 -1.60,39.13 -1.68,38.87 -1.66,38.59 -1.65,38.32 -1.55,38.07 -1.45,37.81 -1.27,37.60 -1.09,37.39 -0.86,37.25 -0.62,37.11 -0.35,37.05 -0.09,36.99 0.18,37.02 0.45,37.05 0.70,37.17 0.95,37.28 1.14,37.47 1.34,37.66 1.47,37.90 1.60,38.14 1.64,38.41 1.69,38.68 1.69,38.68 1.69,38.68 1.66,38.89 1.64,39.09 1.57,39.28 1.49,39.47 1.38,39.64 1.26,39.81 1.11,39.94 0.96,40.08 0.78,40.17 0.60,40.27 0.40,40.32 0.20,40.36 0.00,40.36 -0.20,40.36 -0.40,40.32 -0.60,40.27 -0.78,40.17 -0.96,40.08 -1.11,39.94 -1.26,39.81 -1.38,39.64 -1.49,39.47 -1.57,39.28 -1.64,39.09 -1.66,38.89 -1.69,38.68 -1.67,37.33 -1.65,35.98 -1.60,34.24 -1.55,32.50 -1.53,30.59 -1.51,28.67 -1.54,25.90 -1.58,23.14 -1.63,18.36 -1.68,13.59 -1.75,9.75 -1.82,5.91 -1.91,2.95 -2.01,0 -1.98,-0.24 -1.95,-0.48 -1.86,-0.70 -1.78,-0.93 -1.64,-1.13 -1.50,-1.33 -1.32,-1.49 -1.14,-1.65 -0.92,-1.76 -0.71,-1.88 -0.47,-1.94 -0.24,-1.99 0.00,-1.99 0.24,-1.99 0.47,-1.94 0.71,-1.88 0.92,-1.76 1.14,-1.65 1.32,-1.49 1.50,-1.33 1.64,-1.13 1.78,-0.93 1.86,-0.70 1.95,-0.48 1.98,-0.24 2.01,0.00 2.01,0.00 L 2.01,0 Z"/></g><g transform="translate(376.8525980884611 355.65103071289525) rotate(0 -5.139799943312539 18.631731838268564)" stroke="none"><path fill="#1e1e1e" d="M 0.35,1.78 Q 0.35,1.78 -1.44,2.11 -3.23,2.45 -4.63,3.68 -6.03,4.90 -7.23,6.20 -8.43,7.50 -9.82,9.92 -11.22,12.34 -12.37,15.52 -13.53,18.71 -14.02,21.82 -14.52,24.92 -14.01,27.56 -13.51,30.20 -12.90,31.62 -12.28,33.04 -11.41,33.76 -10.53,34.48 -9.27,34.88 -8.02,35.28 -6.93,35.23 -5.84,35.19 -4.09,34.61 -2.34,34.04 0.90,32.50 4.15,30.97 4.45,30.89 4.76,30.81 5.08,30.83 5.40,30.86 5.69,30.98 5.98,31.10 6.22,31.31 6.46,31.52 6.62,31.80 6.78,32.08 6.84,32.39 6.91,32.70 6.87,33.02 6.83,33.33 6.69,33.62 6.55,33.90 6.32,34.13 6.10,34.36 5.82,34.50 5.53,34.65 5.22,34.69 4.90,34.74 4.59,34.68 4.28,34.62 4.00,34.47 3.72,34.31 3.51,34.08 3.29,33.84 3.16,33.55 3.03,33.26 3.01,32.94 2.98,32.63 3.05,32.32 3.13,32.01 3.29,31.74 3.46,31.47 3.71,31.27 3.96,31.07 4.25,30.95 4.55,30.84 4.87,30.83 5.19,30.82 5.49,30.91 5.80,31.00 6.06,31.18 6.32,31.37 6.51,31.62 6.69,31.88 6.79,32.19 6.89,32.49 6.88,32.81 6.87,33.13 6.77,33.43 6.66,33.72 6.46,33.97 6.27,34.22 6.00,34.40 5.73,34.57 5.73,34.57 5.73,34.57 2.27,36.00 -1.19,37.42 -3.58,38.25 -5.96,39.08 -7.65,38.88 -9.34,38.67 -11.15,37.81 -12.95,36.95 -14.05,35.58 -15.16,34.22 -15.73,32.47 -16.30,30.72 -16.85,27.63 -17.40,24.53 -16.89,21.12 -16.39,17.71 -15.19,14.25 -13.99,10.78 -12.45,7.99 -10.90,5.19 -9.55,3.78 -8.19,2.36 -6.17,0.69 -4.14,-0.97 -2.25,-1.37 -0.35,-1.78 -0.13,-1.80 0.08,-1.81 0.29,-1.78 0.51,-1.74 0.71,-1.65 0.91,-1.57 1.09,-1.43 1.26,-1.30 1.40,-1.13 1.54,-0.96 1.63,-0.76 1.72,-0.56 1.77,-0.35 1.81,-0.13 1.80,0.08 1.79,0.29 1.73,0.50 1.67,0.71 1.56,0.90 1.44,1.09 1.29,1.25 1.14,1.41 0.95,1.53 0.77,1.64 0.56,1.71 0.35,1.78 0.35,1.78 L 0.35,1.78 Z"/></g><g transform="translate(399.98161192088884 355.65103071289525) rotate(0 -0.6424105585551274 15.740605109215124)" stroke="none"><path fill="#1e1e1e" d="M 1.99,0 Q 1.99,0 1.90,2.58 1.81,5.17 1.56,8.17 1.30,11.16 0.99,14.46 0.67,17.75 0.34,19.93 0.00,22.10 -0.14,24.23 -0.29,26.37 0.56,28.25 1.42,30.14 1.58,30.32 1.74,30.51 1.84,30.74 1.93,30.97 1.94,31.22 1.96,31.46 1.89,31.70 1.83,31.94 1.69,32.15 1.55,32.35 1.36,32.50 1.16,32.66 0.93,32.74 0.69,32.82 0.44,32.82 0.20,32.82 -0.03,32.74 -0.26,32.66 -0.46,32.51 -0.66,32.37 -0.80,32.16 -0.94,31.96 -1.01,31.72 -1.07,31.48 -1.06,31.23 -1.05,30.99 -0.96,30.76 -0.87,30.53 -0.71,30.34 -0.55,30.15 -0.34,30.02 -0.13,29.89 0.10,29.83 0.35,29.78 0.59,29.81 0.84,29.83 1.06,29.93 1.29,30.04 1.47,30.21 1.65,30.37 1.77,30.59 1.88,30.81 1.93,31.05 1.97,31.30 1.93,31.54 1.89,31.79 1.77,32.01 1.66,32.23 1.48,32.40 1.30,32.57 1.08,32.67 0.85,32.78 0.61,32.81 0.36,32.84 0.12,32.78 -0.11,32.73 -0.33,32.61 -0.54,32.48 -0.54,32.48 -0.54,32.48 -1.86,29.35 -3.19,26.23 -3.08,23.96 -2.98,21.69 -2.72,19.59 -2.47,17.50 -2.25,14.23 -2.04,10.95 -1.92,8.06 -1.81,5.17 -1.90,2.58 -1.99,0 -1.96,-0.23 -1.93,-0.47 -1.85,-0.70 -1.76,-0.92 -1.63,-1.12 -1.49,-1.32 -1.31,-1.48 -1.13,-1.64 -0.92,-1.75 -0.70,-1.86 -0.47,-1.92 -0.24,-1.98 0.00,-1.98 0.24,-1.98 0.47,-1.92 0.70,-1.86 0.92,-1.75 1.13,-1.64 1.31,-1.48 1.49,-1.32 1.63,-1.12 1.76,-0.92 1.85,-0.70 1.93,-0.47 1.96,-0.23 1.99,0.00 1.99,0.00 L 1.99,0 Z"/></g><g transform="translate(400.62415134816183 372.35533757242166) rotate(0 8.673380187160404 -2.248651736139408)" stroke="none"><path fill="#1e1e1e" d="M -0.39,-2.11 Q -0.39,-2.11 2.57,-2.55 5.55,-3.00 7.87,-3.51 10.20,-4.02 11.72,-4.50 13.25,-4.98 14.63,-5.55 16.02,-6.13 16.33,-6.19 16.65,-6.25 16.97,-6.20 17.29,-6.16 17.58,-6.01 17.86,-5.87 18.09,-5.64 18.32,-5.41 18.46,-5.12 18.60,-4.83 18.64,-4.51 18.68,-4.19 18.62,-3.88 18.56,-3.56 18.40,-3.28 18.24,-3.00 18.00,-2.79 17.75,-2.58 17.46,-2.45 17.16,-2.33 16.84,-2.30 16.52,-2.28 16.21,-2.36 15.90,-2.44 15.63,-2.61 15.36,-2.79 15.16,-3.04 14.96,-3.29 14.85,-3.59 14.74,-3.89 14.73,-4.22 14.72,-4.54 14.82,-4.85 14.92,-5.15 15.11,-5.41 15.30,-5.67 15.56,-5.86 15.82,-6.05 16.13,-6.14 16.44,-6.23 16.76,-6.22 17.08,-6.21 17.38,-6.10 17.68,-5.98 17.93,-5.78 18.18,-5.58 18.35,-5.31 18.53,-5.03 18.60,-4.72 18.68,-4.41 18.65,-4.09 18.62,-3.77 18.49,-3.47 18.36,-3.18 18.15,-2.94 17.93,-2.70 17.65,-2.54 17.37,-2.39 17.37,-2.39 17.37,-2.39 15.81,-1.90 14.26,-1.42 12.66,-1.01 11.07,-0.61 8.67,0.08 6.26,0.78 3.33,1.44 0.39,2.11 0.13,2.12 -0.12,2.14 -0.37,2.10 -0.63,2.05 -0.86,1.94 -1.10,1.84 -1.30,1.68 -1.51,1.52 -1.67,1.32 -1.83,1.11 -1.94,0.88 -2.04,0.64 -2.09,0.39 -2.14,0.13 -2.13,-0.12 -2.11,-0.37 -2.03,-0.62 -1.96,-0.87 -1.83,-1.09 -1.69,-1.31 -1.51,-1.50 -1.33,-1.68 -1.11,-1.82 -0.89,-1.95 -0.64,-2.03 -0.39,-2.11 -0.39,-2.11 L -0.39,-2.11 Z"/></g><g transform="translate(420.5408116941389 351.15368428437716) rotate(0 2.2486732142590427 20.55917829513041)" stroke="none"><path fill="#1e1e1e" d="M 1.82,0 Q 1.82,0 1.75,4.24 1.69,8.49 1.63,11.59 1.58,14.69 1.55,18.59 1.51,22.49 1.48,26.00 1.45,29.50 1.97,32.14 2.49,34.77 3.90,36.99 5.32,39.21 5.41,39.46 5.51,39.72 5.51,39.98 5.52,40.25 5.44,40.51 5.36,40.76 5.20,40.98 5.05,41.20 4.83,41.35 4.61,41.51 4.35,41.58 4.10,41.66 3.83,41.65 3.56,41.64 3.31,41.55 3.06,41.46 2.85,41.29 2.65,41.12 2.50,40.90 2.36,40.67 2.30,40.41 2.23,40.15 2.25,39.88 2.28,39.62 2.38,39.37 2.49,39.13 2.67,38.93 2.85,38.73 3.08,38.60 3.32,38.47 3.58,38.42 3.84,38.37 4.11,38.41 4.37,38.44 4.61,38.56 4.85,38.68 5.04,38.87 5.23,39.06 5.34,39.30 5.46,39.54 5.50,39.81 5.53,40.07 5.48,40.34 5.43,40.60 5.30,40.83 5.17,41.06 4.97,41.24 4.77,41.42 4.52,41.52 4.27,41.63 4.01,41.65 3.74,41.67 3.48,41.60 3.22,41.54 3.00,41.39 2.77,41.25 2.60,41.04 2.44,40.83 2.44,40.83 2.44,40.83 1.08,38.10 -0.27,35.37 -0.86,32.44 -1.45,29.51 -1.48,26.00 -1.51,22.49 -1.55,18.59 -1.58,14.69 -1.63,11.59 -1.69,8.49 -1.75,4.24 -1.82,0 -1.80,-0.21 -1.77,-0.43 -1.69,-0.64 -1.61,-0.85 -1.49,-1.03 -1.36,-1.21 -1.20,-1.35 -1.03,-1.50 -0.84,-1.60 -0.64,-1.71 -0.43,-1.76 -0.22,-1.81 0.00,-1.81 0.22,-1.81 0.43,-1.76 0.64,-1.71 0.84,-1.60 1.03,-1.50 1.20,-1.35 1.36,-1.21 1.49,-1.03 1.62,-0.85 1.69,-0.64 1.77,-0.43 1.80,-0.21 1.82,0.00 1.82,0.00 L 1.82,0 Z"/></g><g transform="translate(433.3903115524202 386.4897444602918) rotate(0 4.176076714881589 10.922074879539082)" stroke="none"><path fill="#1e1e1e" d="M -1.02,-2.26 Q -1.02,-2.26 1.06,-3.04 3.16,-3.83 4.62,-4.44 6.09,-5.05 7.49,-5.02 8.89,-4.99 9.76,-4.35 10.62,-3.71 10.96,-2.05 11.30,-0.39 10.73,1.34 10.15,3.08 9.70,4.41 9.26,5.74 11.11,5.43 12.96,5.12 14.43,6.17 15.90,7.22 16.70,9.37 17.51,11.52 16.80,14.05 16.09,16.58 14.90,18.40 13.71,20.22 11.29,22.14 8.88,24.07 6.00,25.08 3.11,26.09 0.88,26.30 -1.34,26.52 -3.76,26.47 -6.18,26.43 -6.49,26.36 -6.80,26.29 -7.07,26.13 -7.34,25.96 -7.55,25.72 -7.75,25.47 -7.87,25.18 -7.98,24.88 -8.00,24.56 -8.02,24.25 -7.93,23.94 -7.84,23.63 -7.66,23.37 -7.48,23.11 -7.23,22.92 -6.97,22.73 -6.67,22.63 -6.37,22.53 -6.05,22.53 -5.73,22.53 -5.43,22.63 -5.13,22.74 -4.88,22.93 -4.63,23.12 -4.45,23.39 -4.27,23.65 -4.19,23.96 -4.11,24.27 -4.13,24.58 -4.15,24.90 -4.26,25.20 -4.38,25.49 -4.59,25.73 -4.80,25.97 -5.07,26.14 -5.34,26.30 -5.66,26.36 -5.97,26.43 -6.28,26.40 -6.60,26.36 -6.89,26.22 -7.17,26.09 -7.40,25.87 -7.63,25.65 -7.78,25.37 -7.93,25.09 -7.98,24.77 -8.03,24.46 -7.97,24.14 -7.92,23.83 -7.77,23.55 -7.62,23.27 -7.39,23.05 -7.16,22.84 -6.87,22.70 -6.58,22.57 -6.26,22.54 -5.95,22.51 -5.95,22.51 -5.95,22.51 -3.83,22.73 -1.71,22.96 0.06,22.75 1.84,22.54 4.04,21.68 6.25,20.82 7.99,19.22 9.74,17.62 10.50,16.35 11.26,15.09 11.66,13.19 12.06,11.30 10.66,10.67 9.26,10.05 8.11,9.69 6.96,9.33 5.88,8.70 4.81,8.07 4.45,6.12 4.09,4.17 4.78,2.63 5.48,1.09 6.59,0.07 7.70,-0.94 6.33,-0.40 4.96,0.13 2.99,1.19 1.02,2.26 0.74,2.35 0.45,2.44 0.15,2.46 -0.14,2.47 -0.43,2.42 -0.73,2.37 -1.00,2.25 -1.27,2.13 -1.51,1.94 -1.74,1.76 -1.93,1.52 -2.12,1.29 -2.24,1.02 -2.36,0.74 -2.42,0.45 -2.47,0.15 -2.46,-0.13 -2.44,-0.43 -2.35,-0.72 -2.26,-1.01 -2.11,-1.26 -1.96,-1.52 -1.74,-1.73 -1.53,-1.94 -1.28,-2.10 -1.02,-2.26 -1.02,-2.26 L -1.02,-2.26 Z"/></g><g transform="translate(106.79455472327083 210.03012372515934) rotate(0 3.3333333333333286 -0.6666666666666572)" stroke="none"><path fill="#1971c2" d="M -2.49,-0.35 Q -2.49,-0.35 -2.29,-1.72 -2.10,-3.09 -1.06,-5.00 -0.02,-6.91 1.01,-8.27 2.05,-9.63 4.43,-11.18 6.80,-12.73 8.45,-11.11 10.10,-9.50 10.40,-7.08 10.69,-4.66 10.64,-2.93 10.59,-1.20 10.58,0.29 10.57,1.78 10.64,3.81 10.70,5.84 10.72,7.78 10.74,9.73 10.67,10.17 10.60,10.61 10.39,11.00 10.18,11.39 9.86,11.70 9.54,12.01 9.13,12.19 8.73,12.38 8.29,12.43 7.85,12.48 7.41,12.38 6.98,12.29 6.60,12.06 6.22,11.83 5.93,11.49 5.64,11.15 5.48,10.74 5.31,10.32 5.29,9.88 5.26,9.43 5.38,9.01 5.50,8.58 5.75,8.21 6.00,7.84 6.35,7.57 6.71,7.30 7.13,7.16 7.55,7.02 7.99,7.02 8.44,7.02 8.86,7.16 9.28,7.30 9.64,7.57 9.99,7.84 10.24,8.21 10.49,8.58 10.61,9.01 10.73,9.43 10.70,9.88 10.68,10.32 10.52,10.74 10.35,11.15 10.06,11.49 9.77,11.83 9.39,12.06 9.01,12.28 8.58,12.38 8.14,12.48 7.70,12.43 7.26,12.38 6.86,12.19 6.45,12.01 6.13,11.70 5.81,11.40 5.60,11.00 5.39,10.61 5.32,10.17 5.25,9.73 5.25,9.73 5.25,9.73 5.26,7.79 5.28,5.85 5.34,3.83 5.39,1.82 5.36,0.34 5.33,-1.12 5.23,-2.77 5.14,-4.42 5.49,-5.58 5.84,-6.74 5.01,-5.65 4.18,-4.56 3.52,-3.41 2.86,-2.26 2.67,-0.95 2.49,0.35 2.41,0.64 2.33,0.94 2.18,1.20 2.04,1.47 1.83,1.69 1.62,1.91 1.37,2.08 1.12,2.25 0.83,2.35 0.55,2.45 0.24,2.48 -0.05,2.51 -0.35,2.47 -0.65,2.42 -0.93,2.31 -1.21,2.20 -1.46,2.02 -1.70,1.84 -1.90,1.61 -2.10,1.38 -2.23,1.11 -2.37,0.84 -2.43,0.54 -2.50,0.25 -2.49,-0.05 -2.49,-0.35 -2.49,-0.35 L -2.49,-0.35 Z"/></g><g transform="translate(106.12788805660418 224.03012372515934) rotate(0 10.666666666666671 -0.9999999999999716)" stroke="none"><path fill="#1971c2" d="M 0.16,-2.15 Q 0.16,-2.15 2.64,-1.85 5.12,-1.54 7.34,-1.76 9.56,-1.97 11.65,-2.41 13.74,-2.84 15.09,-3.16 16.43,-3.48 18.50,-3.98 20.57,-4.48 20.88,-4.48 21.19,-4.49 21.49,-4.39 21.78,-4.30 22.03,-4.12 22.28,-3.93 22.46,-3.68 22.64,-3.42 22.73,-3.12 22.82,-2.82 22.80,-2.51 22.79,-2.20 22.68,-1.91 22.57,-1.62 22.37,-1.38 22.17,-1.14 21.91,-0.97 21.65,-0.81 21.34,-0.74 21.04,-0.67 20.73,-0.69 20.42,-0.72 20.13,-0.85 19.85,-0.98 19.62,-1.19 19.39,-1.40 19.24,-1.67 19.09,-1.94 19.04,-2.25 18.98,-2.56 19.03,-2.86 19.07,-3.17 19.21,-3.45 19.36,-3.73 19.58,-3.94 19.80,-4.16 20.08,-4.30 20.36,-4.43 20.67,-4.47 20.98,-4.51 21.29,-4.45 21.59,-4.38 21.86,-4.23 22.13,-4.07 22.34,-3.84 22.54,-3.60 22.66,-3.32 22.78,-3.03 22.80,-2.72 22.82,-2.41 22.74,-2.11 22.66,-1.80 22.49,-1.54 22.32,-1.28 22.08,-1.09 21.83,-0.90 21.54,-0.80 21.25,-0.69 21.25,-0.69 21.25,-0.69 19.14,-0.28 17.03,0.12 15.76,0.24 14.50,0.35 12.25,0.94 10.00,1.53 7.42,1.92 4.84,2.31 2.33,2.23 -0.16,2.15 -0.42,2.10 -0.67,2.05 -0.91,1.94 -1.14,1.83 -1.35,1.66 -1.55,1.50 -1.71,1.29 -1.86,1.08 -1.97,0.84 -2.07,0.60 -2.11,0.35 -2.15,0.09 -2.13,-0.16 -2.11,-0.42 -2.03,-0.67 -1.95,-0.91 -1.81,-1.14 -1.67,-1.36 -1.49,-1.54 -1.30,-1.72 -1.07,-1.85 -0.85,-1.98 -0.60,-2.05 -0.35,-2.13 -0.09,-2.14 0.16,-2.15 0.16,-2.15 L 0.16,-2.15 Z"/></g><g transform="translate(281.4612213899375 210.69679039182603) rotate(0 7.666666666666657 5.333333333333314)" stroke="none"><path fill="#1971c2" d="M -1.25,-1.63 Q -1.25,-1.63 1.29,-3.47 3.85,-5.31 5.63,-6.21 7.42,-7.12 8.39,-7.59 9.36,-8.06 10.77,-8.02 12.19,-7.98 13.12,-7.25 14.05,-6.52 14.44,-4.86 14.83,-3.20 14.23,-1.11 13.63,0.96 12.46,2.94 11.28,4.92 9.75,6.90 8.22,8.89 6.42,11.21 4.61,13.53 3.98,14.71 3.35,15.88 4.53,15.22 5.72,14.56 6.83,14.15 7.93,13.74 9.85,13.32 11.77,12.89 13.35,12.81 14.93,12.73 15.35,12.78 15.77,12.84 16.15,13.03 16.53,13.22 16.82,13.51 17.12,13.81 17.31,14.19 17.50,14.57 17.56,14.99 17.61,15.41 17.53,15.82 17.46,16.24 17.25,16.60 17.04,16.97 16.73,17.25 16.41,17.54 16.02,17.70 15.64,17.87 15.21,17.91 14.79,17.94 14.38,17.84 13.97,17.74 13.62,17.51 13.26,17.28 13.00,16.95 12.73,16.62 12.59,16.23 12.44,15.83 12.43,15.41 12.42,14.99 12.54,14.58 12.66,14.18 12.91,13.84 13.16,13.49 13.50,13.25 13.84,13.00 14.25,12.87 14.65,12.75 15.07,12.76 15.49,12.77 15.89,12.92 16.29,13.06 16.62,13.33 16.95,13.59 17.17,13.95 17.40,14.30 17.50,14.71 17.61,15.12 17.57,15.55 17.54,15.97 17.37,16.35 17.20,16.74 16.92,17.06 16.64,17.37 16.27,17.58 15.91,17.79 15.49,17.87 15.08,17.95 15.08,17.95 15.08,17.95 13.65,17.97 12.22,18.00 10.81,18.11 9.39,18.22 7.80,18.70 6.20,19.17 4.57,19.28 2.93,19.39 1.66,18.93 0.39,18.47 0.28,16.19 0.16,13.92 1.00,12.70 1.84,11.49 3.51,9.11 5.17,6.72 6.40,4.84 7.62,2.96 8.42,1.25 9.22,-0.44 9.15,-2.12 9.07,-3.80 7.59,-3.07 6.11,-2.35 3.68,-0.36 1.25,1.63 1.04,1.76 0.82,1.88 0.59,1.95 0.35,2.03 0.10,2.04 -0.14,2.05 -0.38,2.00 -0.63,1.96 -0.85,1.85 -1.08,1.75 -1.27,1.59 -1.47,1.44 -1.62,1.24 -1.77,1.05 -1.87,0.82 -1.97,0.59 -2.01,0.35 -2.05,0.10 -2.04,-0.14 -2.02,-0.38 -1.94,-0.62 -1.87,-0.86 -1.74,-1.07 -1.61,-1.28 -1.43,-1.45 -1.25,-1.63 -1.25,-1.63 L -1.25,-1.63 Z"/></g><g transform="translate(453.46122138993746 202.69679039182603) rotate(0 8.666666666666686 8.666666666666686)" stroke="none"><path fill="#1971c2" d="M -0.49,-2.48 Q -0.49,-2.48 1.44,-2.76 3.37,-3.03 4.64,-3.25 5.90,-3.46 7.31,-3.50 8.72,-3.54 10.11,-2.71 11.50,-1.88 12.14,-0.20 12.78,1.47 12.29,3.35 11.79,5.22 11.04,6.30 10.28,7.37 9.07,6.27 7.85,5.17 9.03,5.12 10.20,5.07 12.01,5.58 13.81,6.08 15.02,6.65 16.23,7.21 16.54,7.34 16.84,7.46 17.11,7.65 17.37,7.84 17.59,8.09 17.80,8.34 17.94,8.64 18.09,8.93 18.16,9.25 18.23,9.57 18.23,9.90 18.22,10.22 18.14,10.54 18.05,10.86 17.89,11.14 17.73,11.43 17.51,11.67 17.29,11.91 17.02,12.09 16.74,12.27 16.43,12.38 16.13,12.49 15.80,12.53 15.47,12.56 15.15,12.51 14.82,12.47 14.36,14.38 13.89,16.30 12.31,17.58 10.73,18.87 9.39,19.64 8.04,20.42 7.80,20.56 7.57,20.71 7.30,20.80 7.03,20.89 6.75,20.91 6.48,20.93 6.20,20.88 5.92,20.84 5.67,20.73 5.41,20.62 5.19,20.45 4.96,20.28 4.79,20.06 4.61,19.84 4.49,19.59 4.37,19.33 4.32,19.06 4.26,18.79 4.28,18.51 4.29,18.23 4.37,17.96 4.45,17.69 4.59,17.45 4.73,17.21 4.92,17.00 5.12,16.80 6.75,16.98 8.39,17.15 8.57,17.48 8.76,17.80 8.83,18.17 8.90,18.54 8.85,18.91 8.80,19.28 8.64,19.62 8.47,19.96 8.21,20.23 7.94,20.49 7.60,20.66 7.27,20.83 6.90,20.88 6.52,20.93 6.15,20.86 5.79,20.79 5.46,20.61 5.13,20.42 4.88,20.15 4.63,19.87 4.48,19.52 4.33,19.18 4.30,18.80 4.26,18.43 4.35,18.06 4.44,17.70 4.64,17.38 4.85,17.06 5.14,16.83 5.43,16.59 5.78,16.46 6.14,16.33 6.51,16.32 6.89,16.31 7.25,16.42 7.61,16.53 7.91,16.74 8.22,16.96 8.44,17.27 8.66,17.57 8.77,17.93 8.88,18.29 8.87,18.67 8.86,19.04 8.73,19.39 8.60,19.75 8.37,20.04 8.14,20.33 7.82,20.54 7.50,20.74 7.14,20.83 6.77,20.92 6.40,20.89 6.03,20.87 5.68,20.72 5.33,20.57 6.69,20.49 8.04,20.42 7.80,20.56 7.57,20.71 7.30,20.80 7.03,20.89 6.75,20.91 6.48,20.93 6.20,20.88 5.92,20.84 5.67,20.73 5.41,20.62 5.19,20.45 4.96,20.28 4.79,20.06 4.61,19.84 4.49,19.59 4.37,19.34 4.32,19.06 4.26,18.79 4.28,18.51 4.29,18.23 4.37,17.96 4.45,17.69 4.59,17.45 4.73,17.21 4.92,17.00 5.12,16.80 6.49,16.04 7.86,15.27 8.95,14.40 10.03,13.53 13.13,10.37 16.23,7.21 16.54,7.34 16.84,7.46 17.11,7.65 17.37,7.84 17.59,8.09 17.80,8.34 17.94,8.64 18.09,8.93 18.16,9.25 18.23,9.57 18.23,9.90 18.22,10.22 18.14,10.54 18.05,10.86 17.89,11.14 17.73,11.43 17.51,11.67 17.29,11.91 17.02,12.09 16.74,12.27 16.43,12.38 16.13,12.49 15.80,12.53 15.47,12.56 15.15,12.51 14.82,12.47 13.60,11.92 12.38,11.37 11.16,11.07 9.94,10.77 7.82,10.37 5.69,9.97 5.89,6.93 6.08,3.89 6.32,2.58 6.55,1.28 5.41,1.39 4.28,1.50 2.39,1.99 0.49,2.48 0.19,2.50 -0.11,2.53 -0.41,2.48 -0.71,2.43 -0.99,2.31 -1.27,2.19 -1.52,2.00 -1.76,1.82 -1.95,1.58 -2.14,1.34 -2.27,1.06 -2.40,0.79 -2.46,0.49 -2.52,0.19 -2.51,-0.11 -2.50,-0.41 -2.41,-0.71 -2.32,-1.00 -2.17,-1.26 -2.02,-1.53 -1.80,-1.75 -1.59,-1.97 -1.33,-2.13 -1.07,-2.29 -0.78,-2.39 -0.49,-2.48 -0.49,-2.48 L -0.49,-2.48 Z"/></g><g transform="translate(669.4612213899375 198.03012372515934) rotate(0 5.666666666666686 7)" stroke="none"><path fill="#1971c2" d="M 1.87,0.74 Q 1.87,0.74 1.03,2.63 0.19,4.52 -0.56,6.60 -1.32,8.68 -1.78,10.34 -2.23,12.00 -0.83,12.75 0.56,13.49 2.44,13.15 4.32,12.80 6.02,12.42 7.71,12.03 9.31,11.51 10.90,10.98 12.87,9.97 14.84,8.95 15.16,8.88 15.47,8.81 15.80,8.85 16.12,8.89 16.42,9.02 16.71,9.16 16.95,9.38 17.19,9.61 17.34,9.90 17.49,10.19 17.54,10.51 17.60,10.83 17.54,11.15 17.49,11.47 17.34,11.76 17.18,12.05 16.95,12.27 16.71,12.50 16.41,12.63 16.12,12.77 15.79,12.80 15.47,12.84 15.15,12.77 14.83,12.70 14.55,12.53 14.27,12.36 14.06,12.11 13.85,11.86 13.73,11.56 13.61,11.26 13.60,10.93 13.58,10.61 13.67,10.29 13.75,9.98 13.94,9.71 14.12,9.44 14.38,9.24 14.64,9.04 14.95,8.94 15.26,8.84 15.58,8.84 15.91,8.84 16.22,8.94 16.53,9.05 16.79,9.24 17.05,9.44 17.23,9.71 17.41,9.98 17.50,10.30 17.58,10.61 17.57,10.94 17.55,11.26 17.43,11.56 17.31,11.87 17.09,12.12 16.88,12.36 16.60,12.53 16.32,12.70 16.32,12.70 16.32,12.70 14.21,13.66 12.10,14.63 10.33,15.20 8.55,15.77 6.82,16.15 5.09,16.54 2.52,17.10 -0.04,17.67 -2.16,17.15 -4.28,16.64 -5.15,15.39 -6.02,14.13 -5.83,12.57 -5.63,11.01 -5.10,9.31 -4.58,7.61 -3.92,5.37 -3.26,3.14 -2.56,1.19 -1.87,-0.74 -1.75,-0.96 -1.64,-1.17 -1.47,-1.35 -1.31,-1.53 -1.10,-1.66 -0.90,-1.80 -0.67,-1.88 -0.44,-1.96 -0.20,-1.99 0.03,-2.01 0.27,-1.98 0.51,-1.95 0.74,-1.86 0.97,-1.76 1.16,-1.62 1.36,-1.48 1.52,-1.30 1.68,-1.11 1.79,-0.89 1.89,-0.68 1.95,-0.44 2.00,-0.20 2.00,0.03 1.99,0.27 1.93,0.51 1.87,0.74 1.87,0.74 L 1.87,0.74 Z"/></g><g transform="translate(684.7945547232708 200.03012372515934) rotate(0 -4 13.666666666666686)" stroke="none"><path fill="#1971c2" d="M 1.92,0.67 Q 1.92,0.67 0.68,3.90 -0.55,7.13 -1.29,9.40 -2.02,11.67 -2.95,14.22 -3.87,16.77 -4.66,18.98 -5.44,21.19 -5.65,22.48 -5.85,23.76 -5.95,25.30 -6.05,26.83 -6.14,27.12 -6.22,27.41 -6.39,27.66 -6.57,27.91 -6.81,28.09 -7.05,28.27 -7.34,28.37 -7.63,28.46 -7.93,28.46 -8.23,28.45 -8.52,28.36 -8.80,28.26 -9.04,28.07 -9.28,27.88 -9.45,27.63 -9.62,27.38 -9.69,27.09 -9.77,26.80 -9.75,26.49 -9.73,26.19 -9.62,25.91 -9.50,25.63 -9.30,25.40 -9.11,25.17 -8.85,25.02 -8.58,24.87 -8.29,24.81 -7.99,24.74 -7.69,24.78 -7.39,24.82 -7.12,24.95 -6.84,25.08 -6.63,25.29 -6.41,25.50 -6.27,25.76 -6.13,26.03 -6.09,26.33 -6.04,26.63 -6.09,26.93 -6.14,27.23 -6.29,27.49 -6.43,27.76 -6.65,27.97 -6.88,28.17 -7.15,28.30 -7.43,28.42 -7.73,28.45 -8.03,28.48 -8.33,28.41 -8.62,28.34 -8.88,28.18 -9.14,28.03 -9.33,27.79 -9.52,27.56 -9.63,27.28 -9.74,27.00 -9.75,26.69 -9.77,26.39 -9.77,26.39 -9.77,26.39 -9.48,24.68 -9.19,22.96 -8.76,21.59 -8.33,20.22 -7.61,17.98 -6.90,15.74 -6.09,13.23 -5.29,10.72 -4.67,8.31 -4.04,5.90 -2.98,2.61 -1.92,-0.67 -1.81,-0.90 -1.70,-1.12 -1.54,-1.30 -1.38,-1.49 -1.19,-1.64 -0.99,-1.78 -0.76,-1.87 -0.53,-1.97 -0.29,-2.00 -0.04,-2.04 0.19,-2.01 0.44,-1.99 0.67,-1.91 0.90,-1.83 1.11,-1.69 1.31,-1.56 1.48,-1.37 1.65,-1.19 1.77,-0.98 1.89,-0.76 1.95,-0.53 2.02,-0.29 2.02,-0.04 2.03,0.19 1.97,0.43 1.92,0.68 1.92,0.68 L 1.92,0.67 Z"/></g><g transform="translate(814.7945547232708 196.69679039182603) rotate(0 0.6666666666666856 9)" stroke="none"><path fill="#1971c2" d="M 1.75,1.17 Q 1.75,1.17 0.53,2.84 -0.69,4.52 -2.03,6.20 -3.38,7.89 -4.28,9.07 -5.17,10.25 -6.06,9.65 -6.94,9.05 -4.98,9.13 -3.02,9.22 -1.38,9.25 0.26,9.28 1.72,9.26 3.18,9.24 4.79,9.24 6.40,9.24 7.81,9.76 9.21,10.28 10.00,12.07 10.78,13.86 9.95,15.52 9.11,17.17 8.16,18.08 7.21,18.99 4.99,19.48 2.77,19.97 -0.58,19.36 -3.93,18.74 -4.31,18.59 -4.69,18.44 -5.00,18.17 -5.31,17.91 -5.52,17.56 -5.72,17.21 -5.81,16.81 -5.90,16.41 -5.85,16.00 -5.81,15.60 -5.63,15.23 -5.46,14.86 -5.18,14.56 -4.90,14.27 -4.54,14.08 -4.17,13.89 -3.77,13.83 -3.37,13.76 -2.97,13.83 -2.56,13.90 -2.20,14.09 -1.84,14.28 -1.57,14.58 -1.29,14.88 -1.12,15.25 -0.95,15.62 -0.90,16.02 -0.86,16.43 -0.95,16.83 -1.04,17.22 -1.25,17.57 -1.46,17.92 -1.77,18.18 -2.09,18.45 -2.47,18.60 -2.85,18.75 -3.25,18.77 -3.66,18.79 -4.05,18.68 -4.45,18.57 -4.78,18.34 -5.12,18.11 -5.36,17.78 -5.61,17.45 -5.74,17.07 -5.87,16.68 -5.87,16.27 -5.86,15.86 -5.73,15.48 -5.60,15.09 -5.35,14.77 -5.11,14.45 -4.77,14.22 -4.43,13.99 -4.03,13.88 -3.64,13.77 -3.23,13.80 -2.83,13.82 -2.83,13.82 -2.83,13.82 -0.36,14.51 2.10,15.20 3.18,15.14 4.25,15.07 5.24,14.23 6.23,13.39 4.68,13.37 3.12,13.35 1.63,13.29 0.14,13.23 -1.54,13.16 -3.24,13.09 -5.51,12.93 -7.79,12.78 -7.95,10.30 -8.11,7.81 -7.17,6.79 -6.23,5.77 -5.07,4.07 -3.90,2.37 -2.83,0.60 -1.75,-1.17 -1.59,-1.36 -1.42,-1.55 -1.21,-1.70 -1.01,-1.85 -0.77,-1.95 -0.53,-2.04 -0.28,-2.07 -0.03,-2.11 0.21,-2.08 0.47,-2.06 0.71,-1.97 0.95,-1.88 1.16,-1.74 1.37,-1.60 1.54,-1.41 1.72,-1.22 1.84,-1.00 1.96,-0.78 2.02,-0.53 2.09,-0.28 2.09,-0.03 2.10,0.22 2.04,0.46 1.98,0.71 1.87,0.94 1.75,1.17 1.75,1.17 L 1.75,1.17 Z"/></g><g transform="translate(815.4612213899375 196.03012372515934) rotate(0 6.666666666666686 -0.3333333333333144)" stroke="none"><path fill="#1971c2" d="M -0.10,-2.10 Q -0.10,-2.10 3.73,-2.19 7.57,-2.27 9.19,-2.38 10.82,-2.49 11.14,-2.46 11.45,-2.42 11.74,-2.29 12.02,-2.15 12.25,-1.94 12.48,-1.72 12.63,-1.44 12.77,-1.16 12.82,-0.85 12.87,-0.53 12.82,-0.22 12.77,0.08 12.62,0.36 12.47,0.64 12.24,0.85 12.01,1.07 11.72,1.20 11.43,1.33 11.12,1.37 10.81,1.40 10.50,1.33 10.19,1.26 9.92,1.10 9.65,0.93 9.45,0.69 9.24,0.45 9.13,0.15 9.01,-0.13 8.99,-0.45 8.98,-0.76 9.06,-1.07 9.15,-1.37 9.33,-1.63 9.51,-1.89 9.76,-2.08 10.01,-2.27 10.31,-2.37 10.61,-2.47 10.93,-2.47 11.24,-2.47 11.54,-2.37 11.84,-2.26 12.09,-2.07 12.34,-1.88 12.52,-1.62 12.70,-1.35 12.78,-1.05 12.86,-0.74 12.84,-0.43 12.83,-0.11 12.71,0.17 12.59,0.46 12.38,0.70 12.18,0.94 11.91,1.10 11.63,1.27 11.33,1.33 11.02,1.40 11.02,1.40 11.02,1.40 9.39,1.45 7.76,1.51 3.93,1.80 0.10,2.10 -0.14,2.08 -0.40,2.06 -0.64,1.99 -0.88,1.91 -1.10,1.77 -1.31,1.64 -1.49,1.46 -1.67,1.28 -1.80,1.06 -1.93,0.84 -2.00,0.60 -2.07,0.35 -2.09,0.10 -2.10,-0.14 -2.05,-0.39 -2.00,-0.64 -1.89,-0.87 -1.79,-1.10 -1.63,-1.30 -1.47,-1.50 -1.27,-1.66 -1.07,-1.81 -0.83,-1.91 -0.60,-2.01 -0.35,-2.06 -0.10,-2.10 -0.10,-2.10 L -0.10,-2.10 Z"/></g></svg>